<svg width="150" height="150" viewBox="0 0 150 150" fill="none" xmlns="http://www.w3.org/2000/svg">
<path d="M110.684 85.5762H55.957C53.8184 85.5762 52.0312 87.3047 51.8555 89.5166L42.7148 133.989V134.282C42.7148 136.655 44.5605 138.574 46.8164 138.574H119.81C122.08 138.574 123.911 136.655 123.911 134.282V133.989L114.771 89.5166C114.595 87.3047 112.822 85.5762 110.684 85.5762ZM100.4 51.5918C100.4 62.6367 94.3652 71.6016 83.3203 71.6016C72.2754 71.6016 63.3105 62.6367 63.3105 51.5918C63.3105 40.5469 72.2754 31.582 83.3203 31.582C94.3652 31.582 100.4 40.5469 100.4 51.5918Z" fill="#9AA9D0"/>
<path d="M48.4277 51.8115C48.4277 66.1523 60.2051 77.8125 74.6924 77.8125C81.709 77.8125 88.3008 75.1172 93.252 70.21C98.2178 65.3027 100.957 58.7695 100.957 51.8115C100.957 37.4707 89.1797 25.8105 74.6924 25.8105C60.2197 25.8105 48.4277 37.4707 48.4277 51.8115ZM74.6924 31.6699C85.9424 31.6699 95.0977 40.708 95.0977 51.8115C95.0977 62.915 85.9424 71.9531 74.6924 71.9531C63.4424 71.9531 54.2871 62.915 54.2871 51.8115C54.2871 40.708 63.4424 31.6699 74.6924 31.6699ZM109.922 79.8633H39.6826C36.9287 79.8633 34.6436 81.8555 34.4238 84.3896L22.6904 135.483V135.82C22.6904 138.545 25.0635 140.757 27.9639 140.757H121.641C124.556 140.757 126.914 138.545 126.914 135.82V135.483L115.181 84.3896C114.946 81.8555 112.676 79.8633 109.922 79.8633ZM28.8281 134.897L40.1367 85.7227H74.5166L65.0098 95.127C64.585 95.5518 64.4092 96.167 64.5557 96.7529L73.4912 132.114C73.9307 133.843 76.4062 133.843 76.8457 132.114L85.7959 96.7529C85.9424 96.167 85.7666 95.5518 85.3418 95.127L75.835 85.7227H109.468L120.762 134.897H28.8281Z" fill="#4752B6"/>
<path d="M41.748 51.6504C42.0557 51.7529 42.3633 51.7969 42.6563 51.7969C43.8867 51.7969 45.0293 51.0059 45.4395 49.7754C45.9375 48.2373 45.1025 46.582 43.5645 46.084C38.8477 44.5459 33.8232 39.0527 33.8232 31.9336C33.8232 22.8076 41.3525 15.3809 50.5957 15.3809C55.8398 15.3809 60.1758 17.9736 63.5156 23.1006C64.3945 24.4629 66.2109 24.8438 67.5732 23.9648C68.9355 23.0859 69.3164 21.2695 68.4375 19.9072C64.0137 13.1104 57.8467 9.52148 50.5957 9.52148C38.1152 9.52148 27.9639 19.5703 27.9639 31.9336C27.9639 41.9238 34.8926 49.4092 41.748 51.6504ZM28.6816 98.4229C28.6816 96.8115 27.3633 95.4932 25.752 95.4932H15.6006L24.4043 58.3008H43.418C45.0293 58.3008 46.3477 56.9824 46.3477 55.3711C46.3477 53.7598 45.0293 52.4414 43.418 52.4414H23.6133C21.1084 52.4414 19.0576 54.2285 18.8086 56.5137L9.33105 96.5186V96.8555C9.33105 99.3457 11.499 101.353 14.1504 101.353H25.752C27.3633 101.353 28.6816 100.049 28.6816 98.4229ZM82.0459 23.8916C83.4082 24.7705 85.21 24.3896 86.1035 23.0273C89.4434 17.9004 93.7939 15.293 99.0381 15.293C108.296 15.293 115.825 22.7197 115.825 31.8604C115.825 38.9941 110.801 44.4873 106.069 46.0254C104.531 46.5234 103.696 48.1787 104.194 49.7168C104.604 50.9473 105.747 51.7383 106.978 51.7383C107.285 51.7383 107.593 51.6943 107.886 51.5918C114.741 49.3506 121.685 41.8506 121.685 31.8604C121.685 19.4971 111.519 9.43359 99.0381 9.43359C91.7871 9.43359 85.6201 13.0371 81.1963 19.834C80.3027 21.1963 80.6836 23.0127 82.0459 23.8916ZM130.986 56.4697C130.752 54.1846 128.687 52.3975 126.182 52.3975H106.348C104.736 52.3975 103.418 53.7158 103.418 55.3272C103.418 56.9385 104.736 58.2568 106.348 58.2568H125.376L134.194 95.4932H124.028C122.417 95.4932 121.099 96.8115 121.099 98.4229C121.099 100.034 122.417 101.353 124.028 101.353H135.645C138.311 101.353 140.464 99.331 140.464 96.8408V96.5039L130.986 56.4697Z" fill="#4752B6"/>
</svg>
