<svg width="150" height="150" viewBox="0 0 150 150" fill="none" xmlns="http://www.w3.org/2000/svg">
<path d="M83.4814 134.927H33.3984V20.3613H47.6367C48.8818 22.9541 51.5186 24.7412 54.5654 24.7412H95.4492C98.4961 24.7412 101.147 22.9395 102.378 20.3613H116.543V87.4658C116.543 89.0771 117.861 90.3955 119.473 90.3955C121.084 90.3955 122.402 89.0771 122.402 87.4658V19.0869C122.402 16.5527 120.308 14.502 117.744 14.502H102.7C101.646 11.5283 98.7891 9.375 95.4492 9.375H54.5654C51.2402 9.375 48.3838 11.5283 47.3145 14.502H32.1826C29.6191 14.502 27.5244 16.5527 27.5244 19.0869V136.216C27.5244 138.75 29.6191 140.801 32.1826 140.801H83.4814C85.0928 140.801 86.4111 139.482 86.4111 137.871C86.4111 136.26 85.1074 134.927 83.4814 134.927Z" fill="#4752B6"/>
<path d="M103.477 59.2676C103.477 57.6563 102.158 56.3379 100.547 56.3379H46.7432C45.9521 55.5615 44.8682 55.0781 43.6523 55.0781C41.2207 55.0781 39.2578 57.041 39.2578 59.4727C39.2578 61.9043 41.2207 63.8672 43.6523 63.8672C45.0439 63.8672 46.2891 63.2227 47.0947 62.1973H100.547C102.158 62.1973 103.477 60.8789 103.477 59.2676ZM103.477 79.4092C103.477 77.7978 102.158 76.4795 100.547 76.4795H47.1826C46.377 75.3955 45.1025 74.707 43.6523 74.707C41.2207 74.707 39.2578 76.6699 39.2578 79.1016C39.2578 81.5332 41.2207 83.4961 43.6523 83.4961C44.7949 83.4961 45.835 83.0566 46.626 82.3389H100.547C102.158 82.3389 103.477 81.0205 103.477 79.4092ZM46.8896 96.7676H46.7578C45.9668 95.9766 44.8682 95.4785 43.6523 95.4785C41.2207 95.4785 39.2578 97.4414 39.2578 99.873C39.2578 102.305 41.2207 104.268 43.6523 104.268C45.0439 104.268 46.2744 103.623 47.0801 102.627H90.6152C92.2266 102.627 93.5449 101.309 93.5449 99.6973C93.5449 98.0859 92.2266 96.7676 90.6152 96.7676H46.8896ZM139.189 77.5488C137.754 76.8018 135.981 77.3584 135.234 78.7939L106.802 133.447L85.7666 121.934C84.3604 121.157 82.5586 121.685 81.7969 123.091C81.0205 124.497 81.5479 126.299 82.9541 127.061L106.699 140.068C108.105 140.845 109.907 140.317 110.669 138.911C110.801 138.662 110.903 138.398 110.962 138.135L140.435 81.5186C141.182 80.083 140.625 78.2959 139.189 77.5488Z" fill="#4752B6"/>
<path d="M106.025 49.0869H43.1836C41.0156 49.0869 39.2578 47.3291 39.2578 45.1611V33.2373C39.2578 31.0693 41.0156 29.3115 43.1836 29.3115H106.025C108.193 29.3115 109.951 31.0693 109.951 33.2373V45.1611C109.951 47.3291 108.193 49.0869 106.025 49.0869Z" fill="#9AA9D0"/>
</svg>
