<svg width="150" height="150" viewBox="0 0 150 150" fill="none" xmlns="http://www.w3.org/2000/svg">
<path d="M35.2441 56.3379V62.9443H22.7344C21.8115 62.9443 21.0645 64.0723 21.0645 65.4492V66.2988C21.0645 67.6904 21.8115 68.8037 22.7344 68.8037H53.2178C54.1406 68.8037 54.8877 67.6758 54.8877 66.2988V65.4492C54.8877 64.0576 54.1406 62.9443 53.2178 62.9443H41.1035V56.3379H61.6992C66.5039 56.3379 70.4297 52.1191 70.4297 46.9189V19.0869C70.4297 13.9014 66.5186 9.66797 61.6992 9.66797H18.5303C13.7256 9.66797 9.7998 13.8867 9.7998 19.0869V46.9336C9.7998 52.1191 13.7109 56.3525 18.5303 56.3525H35.2441V56.3379ZM15.6592 46.9336V19.0869C15.6592 17.124 16.9482 15.5273 18.5303 15.5273H61.6992C63.2813 15.5273 64.5703 17.124 64.5703 19.0869V46.9336C64.5703 48.8965 63.2813 50.4932 61.6992 50.4932H18.5303C16.9482 50.4785 15.6592 48.8818 15.6592 46.9336ZM132.847 80.0098H81.9287C78.1494 80.0098 75.0879 83.3936 75.0879 87.583V120.073C75.0879 124.248 78.1494 127.646 81.9287 127.646H104.502V134.575H91.9189C91.04 134.575 90.3223 135.645 90.3223 136.963V138.032C90.3223 139.351 91.04 140.42 91.9189 140.42H122.563C123.442 140.42 124.16 139.351 124.16 138.032V136.963C124.16 135.645 123.442 134.575 122.563 134.575H110.376V127.646H132.861C136.641 127.646 139.702 124.263 139.702 120.073V87.583C139.673 83.4082 136.611 80.0098 132.847 80.0098ZM77.9736 21.6357H126.46V63.1348C126.46 64.7461 127.778 66.0645 129.39 66.0645C131.001 66.0645 132.319 64.7461 132.319 63.1348V15.7764H77.9736C76.3623 15.7764 75.0439 17.0947 75.0439 18.7061C75.0439 20.3174 76.3623 21.6357 77.9736 21.6357ZM69.3897 130.342H20.9033V88.8428C20.9033 87.2314 19.585 85.9131 17.9736 85.9131C16.3623 85.9131 15.0439 87.2314 15.0439 88.8428V136.216H69.3897C71.001 136.216 72.3193 134.897 72.3193 133.286C72.3193 131.675 71.0156 130.342 69.3897 130.342Z" fill="#4752B6"/>
<path d="M58.0078 45.8496H22.4121C20.8008 45.8496 19.4824 44.5312 19.4824 42.9199V22.4121C19.4824 20.8008 20.8008 19.4824 22.4121 19.4824H58.0078C59.6191 19.4824 60.9375 20.8008 60.9375 22.4121V42.9199C60.9375 44.5312 59.6191 45.8496 58.0078 45.8496Z" fill="#9AA9D0"/>
</svg>
