<svg width="39" height="64" viewBox="0 0 39 64" fill="none" xmlns="http://www.w3.org/2000/svg">
<path d="M6.15624 0.0938683C6.9073 0.0900536 7.65226 0.23645 8.34614 0.524677C9.04001 0.812901 9.66907 1.23685 10.1975 1.77136L36.8849 28.4589C37.9558 29.5309 38.5574 30.9843 38.5574 32.5001C38.5574 34.0152 37.9558 35.4685 36.8849 36.5414L10.1975 62.9999C9.12236 63.6967 7.84518 64.0126 6.56951 63.8967C5.29385 63.781 4.09367 63.2402 3.1619 62.3612C2.23012 61.4822 1.62088 60.3159 1.43102 59.0491C1.24116 57.7822 1.48211 56.4884 2.11499 55.3749L24.99 32.5001L2.11499 9.62511C1.04368 8.55228 0.442062 7.09895 0.442062 5.58387C0.442062 4.06802 1.04368 2.6147 2.11499 1.54262C3.21833 0.546032 4.67089 0.0252419 6.15624 0.0938683Z" fill="#D9D9D9"/>
</svg>
