<svg width="39" height="64" viewBox="0 0 39 64" fill="none" xmlns="http://www.w3.org/2000/svg">
<path d="M32.8437 63.9061C32.0927 63.9099 31.3477 63.7635 30.6538 63.4753C29.96 63.1871 29.3309 62.7631 28.8025 62.2286L2.11507 35.5411C1.04414 34.4691 0.442612 33.0157 0.442612 31.4999C0.442612 29.9848 1.04414 28.5315 2.11507 27.4586L28.8025 1.00012C29.8776 0.303267 31.1548 -0.0125569 32.4305 0.103267C33.7061 0.219014 34.9063 0.759778 35.8381 1.63879C36.7699 2.5178 37.3791 3.68412 37.569 4.95094C37.7588 6.21776 37.5179 7.51156 36.885 8.62512L14.01 31.4999L36.885 54.3749C37.9563 55.4477 38.5579 56.901 38.5579 58.4161C38.5579 59.932 37.9563 61.3853 36.885 62.4574C35.7817 63.454 34.3291 63.9748 32.8437 63.9061Z" fill="#D9D9D9"/>
</svg>
