<svg width="120" height="120" viewBox="0 0 120 120" fill="none" xmlns="http://www.w3.org/2000/svg">
<g clip-path="url(#clip0_21_2)">
<rect width="120" height="120" fill="black"/>
<g filter="url(#filter0_f_21_2)">
<path d="M56.2553 11.8893C58.3095 10.7035 60.8405 10.7035 62.8948 11.8897L99.3802 32.9545C101.435 34.1403 102.7 36.3324 102.7 38.7043V80.8341C102.7 83.2061 101.435 85.3981 99.3802 86.5842L62.8948 107.649C60.8405 108.835 58.3095 108.835 56.2553 107.649L19.7698 86.5839C17.7155 85.3981 16.45 83.2061 16.45 80.8341V38.7043C16.45 36.3324 17.7155 34.1403 19.7698 32.9542L56.2553 11.8893Z" fill="#100618"/>
<path d="M56.2553 11.8893C58.3095 10.7035 60.8405 10.7035 62.8948 11.8897L99.3802 32.9545C101.435 34.1403 102.7 36.3324 102.7 38.7043V80.8341C102.7 83.2061 101.435 85.3981 99.3802 86.5842L62.8948 107.649C60.8405 108.835 58.3095 108.835 56.2553 107.649L19.7698 86.5839C17.7155 85.3981 16.45 83.2061 16.45 80.8341V38.7043C16.45 36.3324 17.7155 34.1403 19.7698 32.9542L56.2553 11.8893Z" stroke="url(#paint0_linear_21_2)" stroke-width="5"/>
</g>
<g opacity="0.25" filter="url(#filter1_f_21_2)">
<path d="M59.7053 11.8893C61.7595 10.7035 64.2905 10.7035 66.3448 11.8897L102.83 32.9545C104.885 34.1403 106.15 36.3324 106.15 38.7043V80.8341C106.15 83.2061 104.885 85.3981 102.83 86.5842L66.3448 107.649C64.2905 108.835 61.7595 108.835 59.7053 107.649L23.2198 86.5839C21.1655 85.3981 19.9 83.2061 19.9 80.8341V38.7043C19.9 36.3324 21.1655 34.1403 23.2198 32.9542L59.7053 11.8893Z" fill="#100618"/>
<path d="M59.7053 11.8893C61.7595 10.7035 64.2905 10.7035 66.3448 11.8897L102.83 32.9545C104.885 34.1403 106.15 36.3324 106.15 38.7043V80.8341C106.15 83.2061 104.885 85.3981 102.83 86.5842L66.3448 107.649C64.2905 108.835 61.7595 108.835 59.7053 107.649L23.2198 86.5839C21.1655 85.3981 19.9 83.2061 19.9 80.8341V38.7043C19.9 36.3324 21.1655 34.1403 23.2198 32.9542L59.7053 11.8893Z" stroke="url(#paint1_linear_21_2)" stroke-width="5"/>
</g>
<g opacity="0.25" filter="url(#filter2_f_21_2)">
<path d="M52.8052 11.8893C54.8595 10.7035 57.3905 10.7035 59.4448 11.8897L95.9302 32.9545C97.9845 34.1403 99.25 36.3324 99.25 38.7043V80.8341C99.25 83.2061 97.9845 85.3981 95.9302 86.5842L59.4448 107.649C57.3905 108.835 54.8595 108.835 52.8052 107.649L16.3198 86.5839C14.2655 85.3981 13 83.2061 13 80.8341V38.7043C13 36.3324 14.2655 34.1403 16.3198 32.9542L52.8052 11.8893Z" fill="#100618"/>
<path d="M52.8052 11.8893C54.8595 10.7035 57.3905 10.7035 59.4448 11.8897L95.9302 32.9545C97.9845 34.1403 99.25 36.3324 99.25 38.7043V80.8341C99.25 83.2061 97.9845 85.3981 95.9302 86.5842L59.4448 107.649C57.3905 108.835 54.8595 108.835 52.8052 107.649L16.3198 86.5839C14.2655 85.3981 13 83.2061 13 80.8341V38.7043C13 36.3324 14.2655 34.1403 16.3198 32.9542L52.8052 11.8893Z" stroke="url(#paint2_linear_21_2)" stroke-width="5"/>
</g>
<path d="M56.2553 11.8893C58.3095 10.7035 60.8405 10.7035 62.8948 11.8897L99.3802 32.9545C101.435 34.1403 102.7 36.3324 102.7 38.7043V80.8341C102.7 83.2061 101.435 85.3981 99.3802 86.5842L62.8948 107.649C60.8405 108.835 58.3095 108.835 56.2553 107.649L19.7698 86.5839C17.7155 85.3981 16.45 83.2061 16.45 80.8341V38.7043C16.45 36.3324 17.7155 34.1403 19.7698 32.9542L56.2553 11.8893Z" fill="#100618" stroke="url(#paint3_linear_21_2)" stroke-width="5"/>
<path fill-rule="evenodd" clip-rule="evenodd" d="M64.3452 71H50.4789V71.4821V74.0769V78.6923V81.7692V87.9231V90.8654V91H64.3452V87.9231H53.4925V81.7692H62.8045V78.6923H53.4925V74.0769H64.3452V71Z" fill="url(#paint4_linear_21_2)"/>
<path fill-rule="evenodd" clip-rule="evenodd" d="M38.6183 71H33V71.4821V74.4043V87.5958V90.8654V91H38.6183V90.9977C43.1898 90.8845 46.8663 86.4517 46.8663 80.9999C46.8663 75.5482 43.1898 71.1153 38.6183 71.0021V71ZM36.0136 87.5958H38.4986V87.5934C41.6488 87.5682 44.1958 84.6253 44.1958 80.9987C44.1958 77.3774 41.6561 74.4378 38.5122 74.4043H36.0136V87.5958Z" fill="url(#paint5_linear_21_2)"/>
<path fill-rule="evenodd" clip-rule="evenodd" d="M71.0629 71H66.9709L77.0213 90.9998V91L77.0213 90.9999L77.0214 91V90.9998L87 71H82.908L77.0213 83.6086L71.0629 71Z" fill="url(#paint6_linear_21_2)"/>
<path d="M49.6006 95.9219C49.6514 95.9219 49.696 95.9199 49.7344 95.916C49.7728 95.9121 49.8063 95.9049 49.835 95.8945C49.8643 95.8835 49.8893 95.8685 49.9102 95.8496C49.931 95.8301 49.9489 95.805 49.9639 95.7744C49.9788 95.7438 49.9915 95.7067 50.002 95.6631C50.013 95.6188 50.0228 95.5664 50.0312 95.5059H50.0996L50.0781 96H48.9854V95.9219H49.1807V94.6592H48.9854V94.5811H49.5664V94.6592H49.3711V95.9219H49.6006ZM50.5439 95.9219H50.6904V96H50.2217V95.9219H50.3682V95.2461H50.2217V95.168H50.5439V95.9219ZM50.4561 94.8926C50.4391 94.8926 50.4235 94.89 50.4092 94.8848C50.3955 94.8789 50.3831 94.8708 50.3721 94.8604C50.3617 94.8499 50.3535 94.8379 50.3477 94.8242C50.3418 94.8099 50.3389 94.7939 50.3389 94.7764C50.3389 94.7594 50.3418 94.7438 50.3477 94.7295C50.3542 94.7152 50.3626 94.7028 50.373 94.6924C50.3835 94.682 50.3958 94.6738 50.4102 94.668C50.4245 94.6621 50.4398 94.6592 50.4561 94.6592C50.4723 94.6592 50.4876 94.6621 50.502 94.668C50.5163 94.6732 50.5286 94.681 50.5391 94.6914C50.5501 94.7018 50.5586 94.7142 50.5645 94.7285C50.5703 94.7422 50.5732 94.7578 50.5732 94.7754C50.5732 94.793 50.57 94.8089 50.5635 94.8232C50.5576 94.8376 50.5495 94.8499 50.5391 94.8604C50.5286 94.8701 50.5163 94.8779 50.502 94.8838C50.4876 94.8896 50.4723 94.8926 50.4561 94.8926ZM51.1162 95.9219H51.248V96H50.7939V95.9219H50.9404V95.2461H50.7939V95.168H51.1162V95.3096H51.1201C51.1462 95.2555 51.1813 95.2142 51.2256 95.1855C51.2699 95.1562 51.3268 95.1416 51.3965 95.1416C51.4688 95.1416 51.5251 95.1572 51.5654 95.1885C51.6058 95.2197 51.6325 95.2679 51.6455 95.333H51.6494C51.6755 95.2699 51.7116 95.2223 51.7578 95.1904C51.8047 95.1579 51.8643 95.1416 51.9365 95.1416C52.0244 95.1416 52.0895 95.1647 52.1318 95.2109C52.1748 95.2565 52.1963 95.3219 52.1963 95.4072V95.9219H52.3379V96H51.8887V95.9219H52.0205V95.3799C52.0205 95.3285 52.0088 95.2907 51.9854 95.2666C51.9619 95.2419 51.9287 95.2295 51.8857 95.2295C51.8545 95.2295 51.8249 95.2367 51.7969 95.251C51.7695 95.2646 51.7451 95.2861 51.7236 95.3154C51.7028 95.3447 51.6862 95.3822 51.6738 95.4277C51.6621 95.4733 51.6562 95.5273 51.6562 95.5898V95.9219H51.7881V96H51.3486V95.9219H51.4805V95.3789C51.4805 95.3281 51.4688 95.2907 51.4453 95.2666C51.4219 95.2419 51.3887 95.2295 51.3457 95.2295C51.3145 95.2295 51.2848 95.2367 51.2568 95.251C51.2295 95.2646 51.2051 95.2861 51.1836 95.3154C51.1628 95.3447 51.1462 95.3822 51.1338 95.4277C51.1221 95.4733 51.1162 95.5273 51.1162 95.5898V95.9219ZM52.7588 95.9219H52.9053V96H52.4365V95.9219H52.583V95.2461H52.4365V95.168H52.7588V95.9219ZM52.6709 94.8926C52.654 94.8926 52.6383 94.89 52.624 94.8848C52.6104 94.8789 52.598 94.8708 52.5869 94.8604C52.5765 94.8499 52.5684 94.8379 52.5625 94.8242C52.5566 94.8099 52.5537 94.7939 52.5537 94.7764C52.5537 94.7594 52.5566 94.7438 52.5625 94.7295C52.569 94.7152 52.5775 94.7028 52.5879 94.6924C52.5983 94.682 52.6107 94.6738 52.625 94.668C52.6393 94.6621 52.6546 94.6592 52.6709 94.6592C52.6872 94.6592 52.7025 94.6621 52.7168 94.668C52.7311 94.6732 52.7435 94.681 52.7539 94.6914C52.765 94.7018 52.7734 94.7142 52.7793 94.7285C52.7852 94.7422 52.7881 94.7578 52.7881 94.7754C52.7881 94.793 52.7848 94.8089 52.7783 94.8232C52.7725 94.8376 52.7643 94.8499 52.7539 94.8604C52.7435 94.8701 52.7311 94.8779 52.7168 94.8838C52.7025 94.8896 52.6872 94.8926 52.6709 94.8926ZM53.6299 95.8047C53.6123 95.8809 53.5833 95.9372 53.543 95.9736C53.5026 96.0094 53.4469 96.0273 53.376 96.0273C53.3389 96.0273 53.3053 96.0228 53.2754 96.0137C53.2461 96.0046 53.221 95.9902 53.2002 95.9707C53.1794 95.9505 53.1634 95.9251 53.1523 95.8945C53.1413 95.8633 53.1357 95.8255 53.1357 95.7812V95.2461H52.9893V95.168H53.1357V94.9785L53.3115 94.9492V95.168H53.5654V95.2461H53.3115V95.8027C53.3115 95.8294 53.3138 95.8512 53.3184 95.8682C53.3236 95.8851 53.3307 95.8984 53.3398 95.9082C53.349 95.918 53.3597 95.9248 53.3721 95.9287C53.3844 95.932 53.3984 95.9336 53.4141 95.9336C53.4349 95.9336 53.4528 95.9307 53.4678 95.9248C53.4827 95.9183 53.4958 95.9089 53.5068 95.8965C53.5186 95.8835 53.5283 95.8675 53.5361 95.8486C53.5446 95.8298 53.5524 95.8079 53.5596 95.7832C53.5719 95.7852 53.584 95.7878 53.5957 95.791C53.6074 95.7943 53.6188 95.7988 53.6299 95.8047ZM54.5088 95.7354C54.488 95.8298 54.4476 95.902 54.3877 95.9521C54.3278 96.0023 54.25 96.0273 54.1543 96.0273C54.0885 96.0273 54.0299 96.016 53.9785 95.9932C53.9271 95.9697 53.8835 95.9382 53.8477 95.8984C53.8118 95.8587 53.7845 95.8125 53.7656 95.7598C53.7467 95.7064 53.7373 95.6497 53.7373 95.5898C53.7373 95.5286 53.7471 95.4707 53.7666 95.416C53.7861 95.3613 53.8138 95.3138 53.8496 95.2734C53.8861 95.2331 53.9294 95.2012 53.9795 95.1777C54.0303 95.1536 54.0869 95.1416 54.1494 95.1416C54.2067 95.1416 54.2581 95.1517 54.3037 95.1719C54.3493 95.1921 54.388 95.2204 54.4199 95.2568C54.4518 95.2926 54.4762 95.3356 54.4932 95.3857C54.5107 95.4359 54.5202 95.4909 54.5215 95.5508H53.9326C53.932 95.5618 53.9316 95.5693 53.9316 95.5732C53.9316 95.5765 53.9316 95.5785 53.9316 95.5791C53.9316 95.6559 53.9372 95.7184 53.9482 95.7666C53.96 95.8148 53.9759 95.8525 53.9961 95.8799C54.0169 95.9066 54.0413 95.9248 54.0693 95.9346C54.098 95.9443 54.1296 95.9492 54.1641 95.9492C54.196 95.9492 54.2259 95.945 54.2539 95.9365C54.2826 95.9281 54.3083 95.9147 54.3311 95.8965C54.3538 95.8776 54.3737 95.8535 54.3906 95.8242C54.4082 95.7943 54.4222 95.7585 54.4326 95.7168C54.4456 95.7181 54.4587 95.7204 54.4717 95.7236C54.4847 95.7269 54.4971 95.7308 54.5088 95.7354ZM54.3242 95.4746C54.3223 95.4206 54.3164 95.377 54.3066 95.3438C54.2975 95.3099 54.2852 95.2835 54.2695 95.2646C54.2539 95.2458 54.2354 95.2331 54.2139 95.2266C54.193 95.2194 54.1699 95.2158 54.1445 95.2158C54.1178 95.2158 54.0928 95.2197 54.0693 95.2275C54.0465 95.2354 54.026 95.249 54.0078 95.2686C53.9896 95.2881 53.9743 95.3145 53.9619 95.3477C53.9502 95.3809 53.9421 95.4232 53.9375 95.4746H54.3242ZM54.8955 95.5859C54.8955 95.6602 54.9007 95.721 54.9111 95.7686C54.9215 95.8154 54.9362 95.8525 54.9551 95.8799C54.974 95.9066 54.9964 95.9251 55.0225 95.9355C55.0492 95.9453 55.0781 95.9502 55.1094 95.9502C55.1589 95.9502 55.1992 95.9395 55.2305 95.918C55.2624 95.8965 55.2874 95.8682 55.3057 95.833C55.3245 95.7979 55.3376 95.7581 55.3447 95.7139C55.3519 95.6689 55.3555 95.6234 55.3555 95.5771C55.3555 95.5107 55.3493 95.4548 55.3369 95.4092C55.3252 95.363 55.3086 95.3258 55.2871 95.2979C55.2656 95.2699 55.2399 95.2497 55.21 95.2373C55.1807 95.2249 55.1484 95.2188 55.1133 95.2188C55.082 95.2188 55.0531 95.2236 55.0264 95.2334C54.9997 95.2432 54.9766 95.2617 54.957 95.2891C54.9375 95.3158 54.9222 95.3529 54.9111 95.4004C54.9007 95.4479 54.8955 95.5098 54.8955 95.5859ZM55.5312 95.9219H55.6777V96H55.3555V95.8818H55.3516C55.3346 95.9098 55.3161 95.9333 55.2959 95.9521C55.2764 95.9704 55.2555 95.9854 55.2334 95.9971C55.2113 96.0081 55.1882 96.016 55.1641 96.0205C55.14 96.0251 55.1156 96.0273 55.0908 96.0273C55.029 96.0273 54.974 96.016 54.9258 95.9932C54.8776 95.9697 54.8369 95.9385 54.8037 95.8994C54.7705 95.8597 54.7451 95.8135 54.7275 95.7607C54.7106 95.708 54.7021 95.6517 54.7021 95.5918C54.7021 95.5293 54.7116 95.4707 54.7305 95.416C54.7493 95.3607 54.776 95.3128 54.8105 95.2725C54.8457 95.2321 54.8874 95.2002 54.9355 95.1768C54.9844 95.1533 55.0384 95.1416 55.0977 95.1416C55.1549 95.1416 55.2051 95.1536 55.248 95.1777C55.291 95.2012 55.3255 95.2344 55.3516 95.2773H55.3555V94.6592H55.1992V94.5811H55.5312V95.9219ZM56.6152 95.9219H56.7617V96H56.293V95.9219H56.4395V94.6592H56.293V94.5811H56.6152V95.9219ZM57.1865 95.9219H57.333V96H56.8643V95.9219H57.0107V95.2461H56.8643V95.168H57.1865V95.9219ZM57.0986 94.8926C57.0817 94.8926 57.0661 94.89 57.0518 94.8848C57.0381 94.8789 57.0257 94.8708 57.0146 94.8604C57.0042 94.8499 56.9961 94.8379 56.9902 94.8242C56.9844 94.8099 56.9814 94.7939 56.9814 94.7764C56.9814 94.7594 56.9844 94.7438 56.9902 94.7295C56.9967 94.7152 57.0052 94.7028 57.0156 94.6924C57.026 94.682 57.0384 94.6738 57.0527 94.668C57.0671 94.6621 57.0824 94.6592 57.0986 94.6592C57.1149 94.6592 57.1302 94.6621 57.1445 94.668C57.1589 94.6732 57.1712 94.681 57.1816 94.6914C57.1927 94.7018 57.2012 94.7142 57.207 94.7285C57.2129 94.7422 57.2158 94.7578 57.2158 94.7754C57.2158 94.793 57.2126 94.8089 57.2061 94.8232C57.2002 94.8376 57.1921 94.8499 57.1816 94.8604C57.1712 94.8701 57.1589 94.8779 57.1445 94.8838C57.1302 94.8896 57.1149 94.8926 57.0986 94.8926ZM58.292 96C58.2646 96.0052 58.2393 96.0085 58.2158 96.0098C58.1924 96.0111 58.1738 96.0117 58.1602 96.0117C58.1257 96.0117 58.097 96.0088 58.0742 96.0029C58.0521 95.9977 58.0345 95.9899 58.0215 95.9795C58.0085 95.9691 57.999 95.9564 57.9932 95.9414C57.9873 95.9264 57.9837 95.9098 57.9824 95.8916H57.9775C57.9593 95.917 57.9398 95.9385 57.9189 95.9561C57.8981 95.9736 57.8763 95.9876 57.8535 95.998C57.8307 96.0085 57.8073 96.016 57.7832 96.0205C57.7598 96.0251 57.736 96.0273 57.7119 96.0273C57.6722 96.0273 57.6367 96.0218 57.6055 96.0107C57.5742 96.0003 57.5479 95.9854 57.5264 95.9658C57.5049 95.9463 57.4886 95.9232 57.4775 95.8965C57.4665 95.8691 57.4609 95.8392 57.4609 95.8066C57.4609 95.7161 57.5052 95.6475 57.5938 95.6006C57.6829 95.5531 57.8112 95.5277 57.9785 95.5244C57.9792 95.4951 57.9795 95.4688 57.9795 95.4453C57.9801 95.4219 57.9805 95.3988 57.9805 95.376C57.9805 95.3167 57.9681 95.2754 57.9434 95.252C57.9193 95.2279 57.8809 95.2158 57.8281 95.2158C57.793 95.2158 57.7614 95.2197 57.7334 95.2275C57.7061 95.2354 57.6836 95.2458 57.666 95.2588C57.6816 95.2738 57.693 95.2897 57.7002 95.3066C57.708 95.3229 57.7119 95.3392 57.7119 95.3555C57.7119 95.3828 57.7031 95.4056 57.6855 95.4238C57.668 95.4421 57.6439 95.4512 57.6133 95.4512C57.6003 95.4512 57.5876 95.4492 57.5752 95.4453C57.5628 95.4414 57.5521 95.4352 57.543 95.4268C57.5339 95.4183 57.5264 95.4079 57.5205 95.3955C57.5153 95.3825 57.5127 95.3675 57.5127 95.3506C57.5127 95.3239 57.5199 95.2982 57.5342 95.2734C57.5492 95.248 57.571 95.2256 57.5996 95.2061C57.6289 95.1865 57.665 95.1709 57.708 95.1592C57.7516 95.1475 57.8024 95.1416 57.8604 95.1416C57.9072 95.1416 57.9486 95.1462 57.9844 95.1553C58.0208 95.1644 58.0514 95.1797 58.0762 95.2012C58.1016 95.222 58.1204 95.25 58.1328 95.2852C58.1458 95.3203 58.1523 95.3639 58.1523 95.416C58.1523 95.429 58.152 95.4505 58.1514 95.4805C58.1514 95.5098 58.151 95.5423 58.1504 95.5781C58.1497 95.6139 58.1491 95.6504 58.1484 95.6875C58.1484 95.724 58.1484 95.7562 58.1484 95.7842C58.1484 95.8128 58.1491 95.8369 58.1504 95.8564C58.1517 95.8753 58.1549 95.8906 58.1602 95.9023C58.1654 95.9134 58.1732 95.9215 58.1836 95.9268C58.194 95.9313 58.2087 95.9336 58.2275 95.9336C58.2438 95.9336 58.2653 95.9316 58.292 95.9277V96ZM57.9785 95.5977C57.9076 95.5996 57.8503 95.6051 57.8066 95.6143C57.763 95.6227 57.7292 95.6351 57.7051 95.6514C57.681 95.667 57.6647 95.6862 57.6562 95.709C57.6478 95.7318 57.6436 95.7578 57.6436 95.7871C57.6436 95.8379 57.654 95.876 57.6748 95.9014C57.6963 95.9261 57.7256 95.9385 57.7627 95.9385C57.7829 95.9385 57.8053 95.9342 57.8301 95.9258C57.8555 95.9173 57.8792 95.9036 57.9014 95.8848C57.9235 95.8652 57.9417 95.8398 57.9561 95.8086C57.971 95.7773 57.9785 95.7386 57.9785 95.6924V95.5977ZM58.6475 96H58.5107V94.6592H58.3643V94.5811H58.6865V95.2773H58.6904C58.7191 95.2311 58.7562 95.1969 58.8018 95.1748C58.848 95.1527 58.8981 95.1416 58.9521 95.1416C59.0088 95.1416 59.0605 95.152 59.1074 95.1729C59.1549 95.1937 59.196 95.2233 59.2305 95.2617C59.265 95.2995 59.2917 95.3454 59.3105 95.3994C59.3301 95.4535 59.3398 95.5133 59.3398 95.5791C59.3398 95.6488 59.3291 95.7113 59.3076 95.7666C59.2868 95.8219 59.2585 95.8688 59.2227 95.9072C59.1868 95.9456 59.1452 95.9753 59.0977 95.9961C59.0501 96.0169 59 96.0273 58.9473 96.0273C58.8945 96.0273 58.8457 96.016 58.8008 95.9932C58.7565 95.9697 58.7197 95.9326 58.6904 95.8818H58.6846L58.6475 96ZM59.1465 95.582C59.1465 95.5078 59.1413 95.4473 59.1309 95.4004C59.1204 95.3529 59.1055 95.3158 59.0859 95.2891C59.0671 95.2617 59.0443 95.2432 59.0176 95.2334C58.9909 95.2236 58.9613 95.2188 58.9287 95.2188C58.8844 95.2188 58.847 95.2272 58.8164 95.2441C58.7858 95.2611 58.7607 95.2852 58.7412 95.3164C58.7223 95.3477 58.7083 95.3854 58.6992 95.4297C58.6908 95.4733 58.6865 95.5225 58.6865 95.5771C58.6865 95.6331 58.6904 95.6813 58.6982 95.7217C58.7067 95.762 58.7174 95.7962 58.7305 95.8242C58.7435 95.8516 58.7585 95.8737 58.7754 95.8906C58.793 95.9069 58.8105 95.9196 58.8281 95.9287C58.8464 95.9372 58.8643 95.943 58.8818 95.9463C58.9001 95.9489 58.9163 95.9502 58.9307 95.9502C58.9619 95.9502 58.9906 95.9453 59.0166 95.9355C59.0433 95.9258 59.0661 95.9076 59.085 95.8809C59.1045 95.8535 59.1195 95.8161 59.1299 95.7686C59.141 95.7204 59.1465 95.6582 59.1465 95.582ZM59.7998 95.9219H59.9463V96H59.4775V95.9219H59.624V95.2461H59.4775V95.168H59.7998V95.9219ZM59.7119 94.8926C59.695 94.8926 59.6794 94.89 59.665 94.8848C59.6514 94.8789 59.639 94.8708 59.6279 94.8604C59.6175 94.8499 59.6094 94.8379 59.6035 94.8242C59.5977 94.8099 59.5947 94.7939 59.5947 94.7764C59.5947 94.7594 59.5977 94.7438 59.6035 94.7295C59.61 94.7152 59.6185 94.7028 59.6289 94.6924C59.6393 94.682 59.6517 94.6738 59.666 94.668C59.6803 94.6621 59.6956 94.6592 59.7119 94.6592C59.7282 94.6592 59.7435 94.6621 59.7578 94.668C59.7721 94.6732 59.7845 94.681 59.7949 94.6914C59.806 94.7018 59.8145 94.7142 59.8203 94.7285C59.8262 94.7422 59.8291 94.7578 59.8291 94.7754C59.8291 94.793 59.8258 94.8089 59.8193 94.8232C59.8135 94.8376 59.8053 94.8499 59.7949 94.8604C59.7845 94.8701 59.7721 94.8779 59.7578 94.8838C59.7435 94.8896 59.7282 94.8926 59.7119 94.8926ZM60.3672 95.9219H60.5137V96H60.0449V95.9219H60.1914V94.6592H60.0449V94.5811H60.3672V95.9219ZM60.9385 95.9219H61.085V96H60.6162V95.9219H60.7627V95.2461H60.6162V95.168H60.9385V95.9219ZM60.8506 94.8926C60.8337 94.8926 60.818 94.89 60.8037 94.8848C60.79 94.8789 60.7777 94.8708 60.7666 94.8604C60.7562 94.8499 60.748 94.8379 60.7422 94.8242C60.7363 94.8099 60.7334 94.7939 60.7334 94.7764C60.7334 94.7594 60.7363 94.7438 60.7422 94.7295C60.7487 94.7152 60.7572 94.7028 60.7676 94.6924C60.778 94.682 60.7904 94.6738 60.8047 94.668C60.819 94.6621 60.8343 94.6592 60.8506 94.6592C60.8669 94.6592 60.8822 94.6621 60.8965 94.668C60.9108 94.6732 60.9232 94.681 60.9336 94.6914C60.9447 94.7018 60.9531 94.7142 60.959 94.7285C60.9648 94.7422 60.9678 94.7578 60.9678 94.7754C60.9678 94.793 60.9645 94.8089 60.958 94.8232C60.9521 94.8376 60.944 94.8499 60.9336 94.8604C60.9232 94.8701 60.9108 94.8779 60.8965 94.8838C60.8822 94.8896 60.8669 94.8926 60.8506 94.8926ZM61.8096 95.8047C61.792 95.8809 61.763 95.9372 61.7227 95.9736C61.6823 96.0094 61.6266 96.0273 61.5557 96.0273C61.5186 96.0273 61.485 96.0228 61.4551 96.0137C61.4258 96.0046 61.4007 95.9902 61.3799 95.9707C61.359 95.9505 61.3431 95.9251 61.332 95.8945C61.321 95.8633 61.3154 95.8255 61.3154 95.7812V95.2461H61.1689V95.168H61.3154V94.9785L61.4912 94.9492V95.168H61.7451V95.2461H61.4912V95.8027C61.4912 95.8294 61.4935 95.8512 61.498 95.8682C61.5033 95.8851 61.5104 95.8984 61.5195 95.9082C61.5286 95.918 61.5394 95.9248 61.5518 95.9287C61.5641 95.932 61.5781 95.9336 61.5938 95.9336C61.6146 95.9336 61.6325 95.9307 61.6475 95.9248C61.6624 95.9183 61.6755 95.9089 61.6865 95.8965C61.6982 95.8835 61.708 95.8675 61.7158 95.8486C61.7243 95.8298 61.7321 95.8079 61.7393 95.7832C61.7516 95.7852 61.7637 95.7878 61.7754 95.791C61.7871 95.7943 61.7985 95.7988 61.8096 95.8047ZM62.6367 95.2461H62.5V95.168H62.8652V95.2461H62.7207L62.3438 96.0996C62.3047 96.1888 62.2702 96.2624 62.2402 96.3203C62.2109 96.3789 62.1836 96.4251 62.1582 96.459C62.1328 96.4935 62.1081 96.5176 62.084 96.5312C62.0599 96.5449 62.0339 96.5518 62.0059 96.5518C61.9837 96.5518 61.9639 96.5482 61.9463 96.541C61.9294 96.5345 61.9147 96.5254 61.9023 96.5137C61.8906 96.5026 61.8815 96.4896 61.875 96.4746C61.8691 96.4596 61.8662 96.4443 61.8662 96.4287C61.8662 96.415 61.8685 96.4017 61.873 96.3887C61.8776 96.3757 61.8844 96.3639 61.8936 96.3535C61.9027 96.3438 61.9134 96.3356 61.9258 96.3291C61.9388 96.3232 61.9538 96.3203 61.9707 96.3203C61.9863 96.3203 62.0003 96.3229 62.0127 96.3281C62.0251 96.334 62.0352 96.3415 62.043 96.3506C62.0514 96.3604 62.0576 96.3711 62.0615 96.3828C62.0661 96.3952 62.0684 96.4079 62.0684 96.4209C62.0684 96.4294 62.0677 96.4362 62.0664 96.4414L62.0703 96.4424C62.0957 96.4196 62.1266 96.3708 62.1631 96.2959C62.2002 96.2217 62.2451 96.125 62.2979 96.0059L61.957 95.2461H61.8096V95.168H62.2861V95.2461H62.1494L62.3916 95.7881H62.3955L62.6367 95.2461ZM64.2061 95.7295C64.1846 95.8278 64.1442 95.902 64.085 95.9521C64.0264 96.0023 63.9502 96.0273 63.8564 96.0273C63.7913 96.0273 63.7327 96.016 63.6807 95.9932C63.6292 95.9697 63.5853 95.9382 63.5488 95.8984C63.513 95.8587 63.4854 95.8125 63.4658 95.7598C63.4463 95.707 63.4365 95.651 63.4365 95.5918C63.4365 95.5299 63.4466 95.4717 63.4668 95.417C63.4876 95.3623 63.5169 95.3148 63.5547 95.2744C63.5924 95.2334 63.6377 95.2012 63.6904 95.1777C63.7438 95.1536 63.8031 95.1416 63.8682 95.1416C63.9144 95.1416 63.9567 95.1478 63.9951 95.1602C64.0342 95.1719 64.0677 95.1878 64.0957 95.208C64.1237 95.2282 64.1455 95.2516 64.1611 95.2783C64.1768 95.305 64.1846 95.333 64.1846 95.3623C64.1846 95.3831 64.181 95.4007 64.1738 95.415C64.1667 95.4287 64.1576 95.4398 64.1465 95.4482C64.1361 95.4567 64.1243 95.4629 64.1113 95.4668C64.0983 95.4707 64.0859 95.4727 64.0742 95.4727C64.0423 95.4727 64.0169 95.4626 63.998 95.4424C63.9798 95.4222 63.9707 95.3981 63.9707 95.3701C63.9707 95.3532 63.9749 95.335 63.9834 95.3154C63.9919 95.2959 64.0049 95.2777 64.0225 95.2607C64.0003 95.2432 63.9746 95.2314 63.9453 95.2256C63.9167 95.2191 63.8903 95.2158 63.8662 95.2158C63.8356 95.2158 63.806 95.2201 63.7773 95.2285C63.7493 95.2363 63.7243 95.2536 63.7021 95.2803C63.6807 95.3063 63.6634 95.3438 63.6504 95.3926C63.6374 95.4414 63.6309 95.5065 63.6309 95.5879C63.6309 95.6634 63.6367 95.7246 63.6484 95.7715C63.6608 95.8184 63.6774 95.8551 63.6982 95.8818C63.7197 95.9079 63.7448 95.9258 63.7734 95.9355C63.8021 95.9447 63.8333 95.9492 63.8672 95.9492C63.8978 95.9492 63.9268 95.945 63.9541 95.9365C63.9814 95.9281 64.0062 95.9147 64.0283 95.8965C64.0511 95.8776 64.071 95.8532 64.0879 95.8232C64.1055 95.7926 64.1195 95.7552 64.1299 95.7109C64.1429 95.7122 64.1559 95.7145 64.1689 95.7178C64.182 95.721 64.1943 95.7249 64.2061 95.7295ZM64.3584 95.5918C64.3584 95.5306 64.3678 95.4727 64.3867 95.418C64.4062 95.3633 64.4346 95.3154 64.4717 95.2744C64.5088 95.2334 64.554 95.2012 64.6074 95.1777C64.6615 95.1536 64.7227 95.1416 64.791 95.1416C64.8587 95.1416 64.9186 95.1533 64.9707 95.1768C65.0228 95.1995 65.0664 95.2308 65.1016 95.2705C65.1367 95.3102 65.1631 95.3564 65.1807 95.4092C65.1989 95.4619 65.208 95.5179 65.208 95.5771C65.208 95.6383 65.1982 95.6963 65.1787 95.751C65.1598 95.8057 65.1318 95.8535 65.0947 95.8945C65.0576 95.9355 65.012 95.9681 64.958 95.9922C64.9046 96.0156 64.8438 96.0273 64.7754 96.0273C64.7077 96.0273 64.6478 96.016 64.5957 95.9932C64.5436 95.9697 64.5 95.9382 64.4648 95.8984C64.4297 95.8587 64.403 95.8125 64.3848 95.7598C64.3672 95.707 64.3584 95.651 64.3584 95.5918ZM64.5518 95.5879C64.5518 95.6589 64.5566 95.7178 64.5664 95.7646C64.5762 95.8115 64.5905 95.849 64.6094 95.877C64.6283 95.9049 64.652 95.9248 64.6807 95.9365C64.7093 95.9476 64.7428 95.9531 64.7812 95.9531C64.819 95.9531 64.8525 95.9473 64.8818 95.9355C64.9111 95.9238 64.9355 95.904 64.9551 95.876C64.9746 95.8473 64.9893 95.8092 64.999 95.7617C65.0094 95.7135 65.0146 95.6533 65.0146 95.5811C65.0146 95.5101 65.0098 95.4512 65 95.4043C64.9902 95.3574 64.9759 95.32 64.957 95.292C64.9382 95.264 64.9141 95.2445 64.8848 95.2334C64.8561 95.2217 64.8229 95.2158 64.7852 95.2158C64.7467 95.2158 64.7129 95.2217 64.6836 95.2334C64.6549 95.2451 64.6309 95.2653 64.6113 95.2939C64.5918 95.3219 64.5768 95.36 64.5664 95.4082C64.5566 95.4557 64.5518 95.5156 64.5518 95.5879ZM65.667 95.9219H65.7988V96H65.3447V95.9219H65.4912V95.2461H65.3447V95.168H65.667V95.3096H65.6709C65.6969 95.2555 65.7321 95.2142 65.7764 95.1855C65.8206 95.1562 65.8776 95.1416 65.9473 95.1416C66.0195 95.1416 66.0758 95.1572 66.1162 95.1885C66.1566 95.2197 66.1833 95.2679 66.1963 95.333H66.2002C66.2262 95.2699 66.2624 95.2223 66.3086 95.1904C66.3555 95.1579 66.415 95.1416 66.4873 95.1416C66.5752 95.1416 66.6403 95.1647 66.6826 95.2109C66.7256 95.2565 66.7471 95.3219 66.7471 95.4072V95.9219H66.8887V96H66.4395V95.9219H66.5713V95.3799C66.5713 95.3285 66.5596 95.2907 66.5361 95.2666C66.5127 95.2419 66.4795 95.2295 66.4365 95.2295C66.4053 95.2295 66.3757 95.2367 66.3477 95.251C66.3203 95.2646 66.2959 95.2861 66.2744 95.3154C66.2536 95.3447 66.237 95.3822 66.2246 95.4277C66.2129 95.4733 66.207 95.5273 66.207 95.5898V95.9219H66.3389V96H65.8994V95.9219H66.0312V95.3789C66.0312 95.3281 66.0195 95.2907 65.9961 95.2666C65.9727 95.2419 65.9395 95.2295 65.8965 95.2295C65.8652 95.2295 65.8356 95.2367 65.8076 95.251C65.7803 95.2646 65.7559 95.2861 65.7344 95.3154C65.7135 95.3447 65.6969 95.3822 65.6846 95.4277C65.6729 95.4733 65.667 95.5273 65.667 95.5898V95.9219ZM67.3047 95.293H67.3086C67.3372 95.2402 67.3743 95.2018 67.4199 95.1777C67.4655 95.1536 67.5163 95.1416 67.5723 95.1416C67.6276 95.1416 67.6787 95.152 67.7256 95.1729C67.7731 95.1937 67.8141 95.2233 67.8486 95.2617C67.8831 95.2995 67.9098 95.3454 67.9287 95.3994C67.9482 95.4535 67.958 95.5133 67.958 95.5791C67.958 95.6488 67.9473 95.7113 67.9258 95.7666C67.9049 95.8219 67.8766 95.8688 67.8408 95.9072C67.805 95.9456 67.7633 95.9753 67.7158 95.9961C67.6683 96.0169 67.6178 96.0273 67.5645 96.0273C67.5117 96.0273 67.4632 96.016 67.4189 95.9932C67.3747 95.9697 67.3379 95.9326 67.3086 95.8818H67.3047V96.457H67.4609V96.5352H66.9824V96.457H67.1289V95.2461H66.9824V95.168H67.3047V95.293ZM67.7646 95.583C67.7646 95.5081 67.7594 95.4473 67.749 95.4004C67.7386 95.3529 67.7236 95.3158 67.7041 95.2891C67.6852 95.2617 67.6628 95.2432 67.6367 95.2334C67.6107 95.2236 67.582 95.2188 67.5508 95.2188C67.5059 95.2188 67.4678 95.2282 67.4365 95.2471C67.4053 95.266 67.3799 95.292 67.3604 95.3252C67.3408 95.3584 67.3265 95.3975 67.3174 95.4424C67.3089 95.4873 67.3047 95.5358 67.3047 95.5879C67.3047 95.6419 67.3086 95.6885 67.3164 95.7275C67.3249 95.7666 67.3359 95.7998 67.3496 95.8271C67.3633 95.8538 67.3789 95.8753 67.3965 95.8916C67.4141 95.9079 67.432 95.9202 67.4502 95.9287C67.4684 95.9372 67.4863 95.943 67.5039 95.9463C67.5215 95.9489 67.5374 95.9502 67.5518 95.9502C67.5817 95.9502 67.6097 95.9453 67.6357 95.9355C67.6618 95.9258 67.6842 95.9076 67.7031 95.8809C67.722 95.8542 67.737 95.8171 67.748 95.7695C67.7591 95.7214 67.7646 95.6592 67.7646 95.583ZM68.9502 96C68.9229 96.0052 68.8975 96.0085 68.874 96.0098C68.8506 96.0111 68.832 96.0117 68.8184 96.0117C68.7839 96.0117 68.7552 96.0088 68.7324 96.0029C68.7103 95.9977 68.6927 95.9899 68.6797 95.9795C68.6667 95.9691 68.6572 95.9564 68.6514 95.9414C68.6455 95.9264 68.6419 95.9098 68.6406 95.8916H68.6357C68.6175 95.917 68.598 95.9385 68.5771 95.9561C68.5563 95.9736 68.5345 95.9876 68.5117 95.998C68.4889 96.0085 68.4655 96.016 68.4414 96.0205C68.418 96.0251 68.3942 96.0273 68.3701 96.0273C68.3304 96.0273 68.2949 96.0218 68.2637 96.0107C68.2324 96.0003 68.2061 95.9854 68.1846 95.9658C68.1631 95.9463 68.1468 95.9232 68.1357 95.8965C68.1247 95.8691 68.1191 95.8392 68.1191 95.8066C68.1191 95.7161 68.1634 95.6475 68.252 95.6006C68.3411 95.5531 68.4694 95.5277 68.6367 95.5244C68.6374 95.4951 68.6377 95.4688 68.6377 95.4453C68.6383 95.4219 68.6387 95.3988 68.6387 95.376C68.6387 95.3167 68.6263 95.2754 68.6016 95.252C68.5775 95.2279 68.5391 95.2158 68.4863 95.2158C68.4512 95.2158 68.4196 95.2197 68.3916 95.2275C68.3643 95.2354 68.3418 95.2458 68.3242 95.2588C68.3398 95.2738 68.3512 95.2897 68.3584 95.3066C68.3662 95.3229 68.3701 95.3392 68.3701 95.3555C68.3701 95.3828 68.3613 95.4056 68.3438 95.4238C68.3262 95.4421 68.3021 95.4512 68.2715 95.4512C68.2585 95.4512 68.2458 95.4492 68.2334 95.4453C68.221 95.4414 68.2103 95.4352 68.2012 95.4268C68.1921 95.4183 68.1846 95.4079 68.1787 95.3955C68.1735 95.3825 68.1709 95.3675 68.1709 95.3506C68.1709 95.3239 68.1781 95.2982 68.1924 95.2734C68.2074 95.248 68.2292 95.2256 68.2578 95.2061C68.2871 95.1865 68.3232 95.1709 68.3662 95.1592C68.4098 95.1475 68.4606 95.1416 68.5186 95.1416C68.5654 95.1416 68.6068 95.1462 68.6426 95.1553C68.679 95.1644 68.7096 95.1797 68.7344 95.2012C68.7598 95.222 68.7786 95.25 68.791 95.2852C68.804 95.3203 68.8105 95.3639 68.8105 95.416C68.8105 95.429 68.8102 95.4505 68.8096 95.4805C68.8096 95.5098 68.8092 95.5423 68.8086 95.5781C68.8079 95.6139 68.8073 95.6504 68.8066 95.6875C68.8066 95.724 68.8066 95.7562 68.8066 95.7842C68.8066 95.8128 68.8073 95.8369 68.8086 95.8564C68.8099 95.8753 68.8132 95.8906 68.8184 95.9023C68.8236 95.9134 68.8314 95.9215 68.8418 95.9268C68.8522 95.9313 68.8669 95.9336 68.8857 95.9336C68.902 95.9336 68.9235 95.9316 68.9502 95.9277V96ZM68.6367 95.5977C68.5658 95.5996 68.5085 95.6051 68.4648 95.6143C68.4212 95.6227 68.3874 95.6351 68.3633 95.6514C68.3392 95.667 68.3229 95.6862 68.3145 95.709C68.306 95.7318 68.3018 95.7578 68.3018 95.7871C68.3018 95.8379 68.3122 95.876 68.333 95.9014C68.3545 95.9261 68.3838 95.9385 68.4209 95.9385C68.4411 95.9385 68.4635 95.9342 68.4883 95.9258C68.5137 95.9173 68.5374 95.9036 68.5596 95.8848C68.5817 95.8652 68.5999 95.8398 68.6143 95.8086C68.6292 95.7773 68.6367 95.7386 68.6367 95.6924V95.5977ZM69.3701 95.9219H69.502V96H69.0479V95.9219H69.1943V95.2461H69.0479V95.168H69.3701V95.3096H69.374C69.4007 95.2555 69.4365 95.2142 69.4814 95.1855C69.5264 95.1562 69.5843 95.1416 69.6553 95.1416C69.7445 95.1416 69.8109 95.1647 69.8545 95.2109C69.8981 95.2565 69.9199 95.3219 69.9199 95.4072V95.9219H70.0615V96H69.6123V95.9219H69.7441V95.3799C69.7441 95.3285 69.7321 95.2907 69.708 95.2666C69.6839 95.2419 69.6501 95.2295 69.6064 95.2295C69.5732 95.2295 69.5423 95.2367 69.5137 95.251C69.485 95.2646 69.46 95.2861 69.4385 95.3154C69.4176 95.3447 69.401 95.3822 69.3887 95.4277C69.3763 95.4733 69.3701 95.5273 69.3701 95.5898V95.9219ZM70.8789 95.2461H70.7422V95.168H71.1074V95.2461H70.9629L70.5859 96.0996C70.5469 96.1888 70.5124 96.2624 70.4824 96.3203C70.4531 96.3789 70.4258 96.4251 70.4004 96.459C70.375 96.4935 70.3503 96.5176 70.3262 96.5312C70.3021 96.5449 70.276 96.5518 70.248 96.5518C70.2259 96.5518 70.2061 96.5482 70.1885 96.541C70.1715 96.5345 70.1569 96.5254 70.1445 96.5137C70.1328 96.5026 70.1237 96.4896 70.1172 96.4746C70.1113 96.4596 70.1084 96.4443 70.1084 96.4287C70.1084 96.415 70.1107 96.4017 70.1152 96.3887C70.1198 96.3757 70.1266 96.3639 70.1357 96.3535C70.1449 96.3438 70.1556 96.3356 70.168 96.3291C70.181 96.3232 70.196 96.3203 70.2129 96.3203C70.2285 96.3203 70.2425 96.3229 70.2549 96.3281C70.2673 96.334 70.2773 96.3415 70.2852 96.3506C70.2936 96.3604 70.2998 96.3711 70.3037 96.3828C70.3083 96.3952 70.3105 96.4079 70.3105 96.4209C70.3105 96.4294 70.3099 96.4362 70.3086 96.4414L70.3125 96.4424C70.3379 96.4196 70.3688 96.3708 70.4053 96.2959C70.4424 96.2217 70.4873 96.125 70.54 96.0059L70.1992 95.2461H70.0518V95.168H70.5283V95.2461H70.3916L70.6338 95.7881H70.6377L70.8789 95.2461Z" fill="#FEFEFE"/>
<path fill-rule="evenodd" clip-rule="evenodd" d="M62.1778 38.9977C63.1591 38.219 63.8069 36.8787 63.8069 35.3558C63.8069 32.9502 62.1905 31 60.1965 31C58.2025 31 56.586 32.9502 56.586 35.3558C56.586 36.9959 57.3374 38.4243 58.4475 39.1673C56.3275 39.8015 54.7225 42.0255 54.7225 44.7699C54.7225 48.0292 56.9126 50.6714 59.6141 50.6714C61.6487 50.6714 63.4766 49.4383 64.2552 47.4373L65.7691 50.2388H69.0302L62.1778 38.9977ZM61.2446 35.2153C61.2446 35.9913 60.7232 36.6204 60.0799 36.6204C59.4367 36.6204 58.9153 35.9913 58.9153 35.2153C58.9153 34.4393 59.4367 33.8102 60.0799 33.8102C60.7232 33.8102 61.2446 34.4393 61.2446 35.2153ZM59.4977 47.0181C60.5912 47.0181 61.4776 45.9487 61.4776 44.6294C61.4776 43.3102 60.5912 42.2408 59.4977 42.2408C58.4042 42.2408 57.5178 43.3102 57.5178 44.6294C57.5178 45.9487 58.4042 47.0181 59.4977 47.0181Z" fill="url(#paint7_linear_21_2)"/>
<path fill-rule="evenodd" clip-rule="evenodd" d="M81.8077 31V31.0015C84.687 31.0774 87 33.6699 87 36.8569C87 40.044 84.687 42.6365 81.8077 42.7124V42.7143H75.8367V51H72.7213V40.8612V39.2857V34.4286V31.4821V31H75.8366V31L81.8077 31ZM81.8077 39.2857V39.2841C83.0015 39.2526 83.9604 38.1777 83.9604 36.8564C83.9604 35.5351 83.0015 34.4602 81.8077 34.4287V34.4286L75.8367 34.4286V34.4286H75.8245V39.2857H75.8367L81.8077 39.2857Z" fill="url(#paint8_linear_21_2)"/>
<path fill-rule="evenodd" clip-rule="evenodd" d="M47.3261 31H50.4518V51H47.3261V31ZM36.1257 31H36.1257V31.0001L41.4858 38.7143L47.326 31V35.2857L44.8231 38.7143L41.4858 43.2857L38.4229 38.7143L36.1257 35.2858V51H33V31H36.1257V31L36.1257 31Z" fill="url(#paint9_linear_21_2)"/>
<path fill-rule="evenodd" clip-rule="evenodd" d="M48.2381 69L45.5904 66.5036V66.5035L45.5904 66.5036L37.6476 59.3096V66.6171L35 69V53.1137L37.6476 55.6101V55.6103L45.5904 62.8741L45.5904 55.4967L48.2381 53.1137L48.2381 69Z" fill="url(#paint10_linear_21_2)"/>
<path fill-rule="evenodd" clip-rule="evenodd" d="M75.8545 53H72.9774V68.8931H75.8545V62.0494L78.7903 65.4499L81.8552 69H85L77.7589 60.7164L85 53.1137H81.8552L78.7903 56.372L75.8545 59.493V53Z" fill="url(#paint11_linear_21_2)"/>
<path fill-rule="evenodd" clip-rule="evenodd" d="M65.1038 57.0923L66.3387 54.5342C64.9184 53.5913 62.8759 53 60.606 53C56.3158 53 52.8379 55.1124 52.8379 57.7183C52.8379 58.7935 53.43 59.7847 54.427 60.5781C54.4265 60.5784 54.4261 60.5786 54.4256 60.5788L54.8517 60.9466L55.3468 61.1908C56.4733 61.8205 57.907 62.2506 59.4958 62.3887C59.5666 62.4047 59.637 62.4206 59.707 62.4366L59.7426 62.4365C61.8083 62.4365 63.4828 62.9332 63.4828 64.4232C63.4828 65.6648 61.8083 66.1615 59.7426 66.1615C58.6159 66.1615 57.1774 65.7821 56.1026 65.2815C55.9472 65.2183 55.7799 65.1493 55.597 65.0738L55.5969 65.0737L55.5968 65.0737L55.5968 65.0737C55.1642 64.8951 54.6443 64.6805 53.9886 64.4232L53.9886 64.4232L52.8414 66.6511C54.2098 67.9966 56.66 68.8931 59.4549 68.8931C63.7451 68.8931 67.223 66.7807 67.223 64.1749C67.223 63.0997 66.6309 62.1085 65.634 61.315C65.6368 61.3135 65.6396 61.3121 65.6424 61.3106L65.5486 61.2483C65.3181 61.0715 65.0672 60.9049 64.7981 60.75L64.5485 60.5843C64.479 60.5572 64.4084 60.5307 64.337 60.5047C63.2574 59.9742 61.939 59.6159 60.495 59.4985C60.4274 59.4832 60.3602 59.4679 60.2934 59.4526C58.7196 59.4123 57.4223 59.0558 57.0061 58.1493C56.9148 58.0208 56.8657 57.8813 56.8657 57.7282C56.8657 57.6813 56.867 57.6356 56.8695 57.5912C56.867 57.5515 56.8657 57.5111 56.8657 57.4699C56.8657 56.2283 58.5403 55.7316 60.6059 55.7316C62.073 55.7316 64.0685 56.3748 65.1018 57.0914L65.1038 57.0923Z" fill="url(#paint12_linear_21_2)"/>
</g>
<defs>
<filter id="filter0_f_21_2" x="-20.05" y="-25.5" width="159.25" height="170.538" filterUnits="userSpaceOnUse" color-interpolation-filters="sRGB">
<feFlood flood-opacity="0" result="BackgroundImageFix"/>
<feBlend mode="normal" in="SourceGraphic" in2="BackgroundImageFix" result="shape"/>
<feGaussianBlur stdDeviation="17" result="effect1_foregroundBlur_21_2"/>
</filter>
<filter id="filter1_f_21_2" x="-2.59998" y="-11.5" width="131.25" height="142.538" filterUnits="userSpaceOnUse" color-interpolation-filters="sRGB">
<feFlood flood-opacity="0" result="BackgroundImageFix"/>
<feBlend mode="normal" in="SourceGraphic" in2="BackgroundImageFix" result="shape"/>
<feGaussianBlur stdDeviation="10" result="effect1_foregroundBlur_21_2"/>
</filter>
<filter id="filter2_f_21_2" x="-9.5" y="-11.5" width="131.25" height="142.538" filterUnits="userSpaceOnUse" color-interpolation-filters="sRGB">
<feFlood flood-opacity="0" result="BackgroundImageFix"/>
<feBlend mode="normal" in="SourceGraphic" in2="BackgroundImageFix" result="shape"/>
<feGaussianBlur stdDeviation="10" result="effect1_foregroundBlur_21_2"/>
</filter>
<linearGradient id="paint0_linear_21_2" x1="59.575" y1="11" x2="59.575" y2="108.538" gradientUnits="userSpaceOnUse">
<stop stop-color="#323A80"/>
<stop offset="1" stop-color="#A3A6C9"/>
</linearGradient>
<linearGradient id="paint1_linear_21_2" x1="63.025" y1="11" x2="63.025" y2="108.538" gradientUnits="userSpaceOnUse">
<stop stop-color="#323A80"/>
<stop offset="1" stop-color="#A3A6C9"/>
</linearGradient>
<linearGradient id="paint2_linear_21_2" x1="56.125" y1="11" x2="56.125" y2="108.538" gradientUnits="userSpaceOnUse">
<stop stop-color="#323A80"/>
<stop offset="1" stop-color="#A3A6C9"/>
</linearGradient>
<linearGradient id="paint3_linear_21_2" x1="59.575" y1="11" x2="59.575" y2="108.538" gradientUnits="userSpaceOnUse">
<stop stop-color="#323A80"/>
<stop offset="1" stop-color="#A3A6C9"/>
</linearGradient>
<linearGradient id="paint4_linear_21_2" x1="52.2588" y1="75.393" x2="64.3284" y2="83.9851" gradientUnits="userSpaceOnUse">
<stop stop-color="#A2A6C9"/>
<stop offset="1" stop-color="#4557FA" stop-opacity="0.2"/>
</linearGradient>
<linearGradient id="paint5_linear_21_2" x1="34.7799" y1="75.393" x2="46.8495" y2="83.9851" gradientUnits="userSpaceOnUse">
<stop stop-color="#A2A6C9"/>
<stop offset="1" stop-color="#4557FA" stop-opacity="0.2"/>
</linearGradient>
<linearGradient id="paint6_linear_21_2" x1="69.5419" y1="75.393" x2="82.3102" y2="88.5224" gradientUnits="userSpaceOnUse">
<stop stop-color="#A2A6C9"/>
<stop offset="1" stop-color="#4557FA" stop-opacity="0.2"/>
</linearGradient>
<linearGradient id="paint7_linear_21_2" x1="56.5591" y1="35.3208" x2="68.6054" y2="44.3172" gradientUnits="userSpaceOnUse">
<stop stop-color="#A2A6C9"/>
<stop offset="1" stop-color="#4557FA" stop-opacity="0.2"/>
</linearGradient>
<linearGradient id="paint8_linear_21_2" x1="74.5542" y1="35.393" x2="86.7354" y2="44.3225" gradientUnits="userSpaceOnUse">
<stop stop-color="#A2A6C9"/>
<stop offset="1" stop-color="#4557FA" stop-opacity="0.2"/>
</linearGradient>
<linearGradient id="paint9_linear_21_2" x1="35.2402" y1="35.393" x2="47.9367" y2="46.7686" gradientUnits="userSpaceOnUse">
<stop stop-color="#A2A6C9"/>
<stop offset="1" stop-color="#4557FA" stop-opacity="0.2"/>
</linearGradient>
<linearGradient id="paint10_linear_21_2" x1="36.6993" y1="56.6031" x2="46.7232" y2="65.1798" gradientUnits="userSpaceOnUse">
<stop stop-color="#A2A6C9"/>
<stop offset="1" stop-color="#4557FA" stop-opacity="0.2"/>
</linearGradient>
<linearGradient id="paint11_linear_21_2" x1="74.5207" y1="56.5144" x2="84.4049" y2="64.1405" gradientUnits="userSpaceOnUse">
<stop stop-color="#A2A6C9"/>
<stop offset="1" stop-color="#4557FA" stop-opacity="0.2"/>
</linearGradient>
<linearGradient id="paint12_linear_21_2" x1="54.6844" y1="56.4909" x2="64.8076" y2="65.899" gradientUnits="userSpaceOnUse">
<stop stop-color="#A2A6C9"/>
<stop offset="1" stop-color="#4557FA" stop-opacity="0.2"/>
</linearGradient>
<clipPath id="clip0_21_2">
<rect width="120" height="120" fill="white"/>
</clipPath>
</defs>
</svg>
