<svg width="375" height="775" viewBox="0 0 375 775" fill="none" xmlns="http://www.w3.org/2000/svg">
<path d="M135.5 630L169.375 665H203.25M135.5 630H101.625L67.75 665M135.5 630H169.375M169.375 630L203.25 595H237.125L271 630M169.375 630H203.25M67.75 665H101.625H135.5M67.75 665H33.875H5.72205e-06" stroke="#4A5CFF" stroke-width="5.83"/>
<path d="M211.444 629.833C211.444 632.176 210.555 634.423 208.971 636.079C207.387 637.736 205.24 638.667 203 638.667C200.76 638.667 198.613 637.736 197.029 636.079C195.445 634.423 194.556 632.176 194.556 629.833C194.556 627.491 195.445 625.244 197.029 623.587C198.613 621.931 200.76 621 203 621C205.24 621 207.387 621.931 208.971 623.587C210.555 625.244 211.444 627.491 211.444 629.833ZM211.444 665.167C211.444 667.509 210.555 669.756 208.971 671.413C207.387 673.069 205.24 674 203 674C200.76 674 198.613 673.069 197.029 671.413C195.445 669.756 194.556 667.509 194.556 665.167C194.556 662.824 195.445 660.577 197.029 658.921C198.613 657.264 200.76 656.333 203 656.333C205.24 656.333 207.387 657.264 208.971 658.921C210.555 660.577 211.444 662.824 211.444 665.167ZM279 629.833C279 632.176 278.11 634.423 276.527 636.079C274.943 637.736 272.795 638.667 270.556 638.667C268.316 638.667 266.168 637.736 264.584 636.079C263.001 634.423 262.111 632.176 262.111 629.833C262.111 627.491 263.001 625.244 264.584 623.587C266.168 621.931 268.316 621 270.556 621C272.795 621 274.943 621.931 276.527 623.587C278.11 625.244 279 627.491 279 629.833ZM143.889 665.167C143.889 667.509 142.999 669.756 141.416 671.413C139.832 673.069 137.684 674 135.444 674C133.205 674 131.057 673.069 129.473 671.413C127.89 669.756 127 667.509 127 665.167C127 662.824 127.89 660.577 129.473 658.921C131.057 657.264 133.205 656.333 135.444 656.333C137.684 656.333 139.832 657.264 141.416 658.921C142.999 660.577 143.889 662.824 143.889 665.167Z" fill="#4A5CFF"/>
<path d="M2.86102e-06 246H38.25H76.5L114.75 211H153" stroke="#8EB7F3" stroke-width="5.83"/>
<path d="M163 211C163 213.387 161.999 215.676 160.217 217.364C158.436 219.052 156.02 220 153.5 220C150.98 220 148.564 219.052 146.783 217.364C145.001 215.676 144 213.387 144 211C144 208.613 145.001 206.324 146.783 204.636C148.564 202.948 150.98 202 153.5 202C156.02 202 158.436 202.948 160.217 204.636C161.999 206.324 163 208.613 163 211Z" fill="#8EB7F3"/>
<path d="M193.2 79L225.4 44H257.6L289.8 9H322M193.2 79H161H128.8H96.6L64.4 44H32.2H0M193.2 79H225.4" stroke="#4A5CFF" stroke-width="5.83"/>
<path d="M233.143 79.2C233.143 81.5339 232.292 83.7722 230.779 85.4226C229.265 87.0729 227.212 88 225.071 88C222.931 88 220.878 87.0729 219.364 85.4226C217.85 83.7722 217 81.5339 217 79.2C217 76.8661 217.85 74.6278 219.364 72.9775C220.878 71.3271 222.931 70.4 225.071 70.4C227.212 70.4 229.265 71.3271 230.779 72.9775C232.292 74.6278 233.143 76.8661 233.143 79.2ZM330 8.8C330 11.1339 329.15 13.3722 327.636 15.0226C326.122 16.6729 324.069 17.6 321.929 17.6C319.788 17.6 317.735 16.6729 316.221 15.0226C314.708 13.3722 313.857 11.1339 313.857 8.8C313.857 6.46609 314.708 4.22777 316.221 2.57745C317.735 0.92713 319.788 0 321.929 0C324.069 0 326.122 0.92713 327.636 2.57745C329.15 4.22777 330 6.46609 330 8.8Z" fill="#4A5CFF"/>
<path d="M42.3333 170H84.6667M42.3333 170L2.6226e-06 205M42.3333 170L84.6667 135H127H169.333M169.333 135L211.667 100H254M169.333 135H211.667H254" stroke="#4A5CFF" stroke-width="5.83"/>
<path d="M265 135C265 137.334 263.882 139.572 261.892 141.223C259.902 142.873 257.203 143.8 254.389 143.8C251.575 143.8 248.876 142.873 246.886 141.223C244.896 139.572 243.778 137.334 243.778 135C243.778 132.666 244.896 130.428 246.886 128.777C248.876 127.127 251.575 126.2 254.389 126.2C257.203 126.2 259.902 127.127 261.892 128.777C263.882 130.428 265 132.666 265 135ZM95.2222 170.2C95.2222 172.534 94.1042 174.772 92.1142 176.423C90.1243 178.073 87.4253 179 84.6111 179C81.7969 179 79.0979 178.073 77.108 176.423C75.118 174.772 74 172.534 74 170.2C74 167.866 75.118 165.628 77.108 163.977C79.0979 162.327 81.7969 161.4 84.6111 161.4C87.4253 161.4 90.1243 162.327 92.1142 163.977C94.1042 165.628 95.2222 167.866 95.2222 170.2ZM265 99.8C265 102.134 263.882 104.372 261.892 106.023C259.902 107.673 257.203 108.6 254.389 108.6C251.575 108.6 248.876 107.673 246.886 106.023C244.896 104.372 243.778 102.134 243.778 99.8C243.778 97.4661 244.896 95.2278 246.886 93.5774C248.876 91.9271 251.575 91 254.389 91C257.203 91 259.902 91.9271 261.892 93.5774C263.882 95.2278 265 97.4661 265 99.8Z" fill="#4A5CFF"/>
<path d="M305.833 662L336.417 697H367M305.833 662H275.25H244.667M305.833 662H336.417M244.667 662L275.25 697M244.667 662L214.083 697H183.5H152.917H122.333H91.75M91.75 697L122.333 732L152.917 767H183.5M91.75 697H61.1667H30.5833H3.09944e-06" stroke="#8EB7F3" stroke-width="5.83"/>
<path d="M344.385 661.714C344.385 664.025 343.578 666.242 342.143 667.876C340.707 669.51 338.761 670.429 336.731 670.429C334.701 670.429 332.754 669.51 331.319 667.876C329.883 666.242 329.077 664.025 329.077 661.714C329.077 659.403 329.883 657.187 331.319 655.552C332.754 653.918 334.701 653 336.731 653C338.761 653 340.707 653.918 342.143 655.552C343.578 657.187 344.385 659.403 344.385 661.714ZM375 696.571C375 698.883 374.194 701.099 372.758 702.733C371.323 704.368 369.376 705.286 367.346 705.286C365.316 705.286 363.369 704.368 361.934 702.733C360.499 701.099 359.692 698.883 359.692 696.571C359.692 694.26 360.499 692.044 361.934 690.409C363.369 688.775 365.316 687.857 367.346 687.857C369.376 687.857 371.323 688.775 372.758 690.409C374.194 692.044 375 694.26 375 696.571ZM283.154 696.571C283.154 698.883 282.347 701.099 280.912 702.733C279.477 704.368 277.53 705.286 275.5 705.286C273.47 705.286 271.523 704.368 270.088 702.733C268.653 701.099 267.846 698.883 267.846 696.571C267.846 694.26 268.653 692.044 270.088 690.409C271.523 688.775 273.47 687.857 275.5 687.857C277.53 687.857 279.477 688.775 280.912 690.409C282.347 692.044 283.154 694.26 283.154 696.571ZM191.308 766.286C191.308 768.597 190.501 770.813 189.066 772.448C187.631 774.082 185.684 775 183.654 775C181.624 775 179.677 774.082 178.242 772.448C176.806 770.813 176 768.597 176 766.286C176 763.975 176.806 761.758 178.242 760.124C179.677 758.49 181.624 757.571 183.654 757.571C185.684 757.571 187.631 758.49 189.066 760.124C190.501 761.758 191.308 763.975 191.308 766.286Z" fill="#8EB7F3"/>
</svg>
