<svg width="70" height="70" viewBox="0 0 70 70" fill="none" xmlns="http://www.w3.org/2000/svg">
<path fill-rule="evenodd" clip-rule="evenodd" d="M5.83334 17.5C5.83334 12.6675 9.75086 8.75 14.5833 8.75H55.4167C60.2493 8.75 64.1667 12.6675 64.1667 17.5V43.75C64.1667 48.5826 60.2493 52.5 55.4167 52.5H37.9167V55.4167H43.75C45.3609 55.4167 46.6667 56.7225 46.6667 58.3333C46.6667 59.9442 45.3609 61.25 43.75 61.25H26.25C24.6392 61.25 23.3333 59.9442 23.3333 58.3333C23.3333 56.7225 24.6392 55.4167 26.25 55.4167H32.0833V52.5H14.5833C9.75086 52.5 5.83334 48.5826 5.83334 43.75C5.83334 38.9174 5.83334 17.5 5.83334 17.5ZM14.5833 14.5833C12.9725 14.5833 11.6667 15.8892 11.6667 17.5V43.75C11.6667 45.3609 12.9725 46.6667 14.5833 46.6667H55.4167C57.0275 46.6667 58.3333 45.3609 58.3333 43.75V17.5C58.3333 15.8892 57.0275 14.5833 55.4167 14.5833H14.5833Z" fill="#09244B"/>
</svg>
