<svg width="70" height="70" viewBox="0 0 70 70" fill="none" xmlns="http://www.w3.org/2000/svg">
<g clip-path="url(#clip0_238_3)">
<path d="M67.6791 64.4175C67.655 64.4175 67.6288 64.4175 67.6047 64.4153C66.4978 64.3781 65.8 63.5206 65.7059 62.4181C65.6316 61.6066 63.385 41.9716 32.7403 41.9934V54.5475C32.7403 55.3941 32.2525 56.1641 31.4869 56.525C30.7278 56.8881 29.8156 56.7766 29.1638 56.2362L0.796252 32.7359C0.286565 32.3181 -0.00437252 31.6969 -0.00218502 31.0428C2.48182e-06 30.3887 0.295315 29.7653 0.802815 29.3497L29.1681 6.06812C29.8222 5.53437 30.7256 5.43156 31.4891 5.78812C32.2503 6.15125 32.7403 6.92125 32.7403 7.76343V20.0441C45.4519 20.4466 55.3678 24.535 61.7488 32.0053C72.135 44.1591 69.8163 61.8209 69.7091 62.5559C69.5472 63.6256 68.7619 64.4131 67.6813 64.4131L67.6791 64.4175ZM30.5528 37.5856H30.5572C52.4475 37.5987 60.8125 44.9903 65.5878 51.5178C64.8878 46.2897 62.8491 39.9831 58.4084 34.8359C52.5066 27.9934 42.9975 24.3862 30.5506 24.3862C29.3409 24.3862 28.3631 23.4084 28.3631 22.1987V12.3703L5.63719 31.0581L28.3631 49.9187V39.7753C28.3631 39.1956 28.5928 38.6378 29.0063 38.2266C29.4175 37.8175 29.9709 37.5856 30.5528 37.5856Z" fill="black"/>
</g>
<defs>
<clipPath id="clip0_238_3">
<rect width="70" height="70" fill="white"/>
</clipPath>
</defs>
</svg>
