<svg width="70" height="70" viewBox="0 0 70 70" fill="none" xmlns="http://www.w3.org/2000/svg">
<g clip-path="url(#clip0_1_189)">
<path d="M35 41.5626C32.4733 41.5647 29.9855 40.9407 27.7589 39.7464C25.5322 38.5521 23.6362 36.8247 22.2404 34.7186L25.8847 32.2961C26.8826 33.8002 28.2372 35.034 29.8276 35.8875C31.4181 36.7409 33.1951 37.1876 35 37.1876C36.805 37.1876 38.582 36.7409 40.1724 35.8875C41.7629 35.034 43.1175 33.8002 44.1154 32.2961L47.7597 34.7186C46.3638 36.8247 44.4678 38.5521 42.2412 39.7464C40.0146 40.9407 37.5267 41.5647 35 41.5626Z" fill="#09244B"/>
<path d="M43.75 17.5C42.8847 17.5 42.0388 17.7566 41.3194 18.2373C40.5999 18.718 40.0392 19.4013 39.708 20.2007C39.3769 21.0002 39.2903 21.8798 39.4591 22.7285C39.6279 23.5772 40.0446 24.3567 40.6564 24.9686C41.2683 25.5804 42.0478 25.9971 42.8965 26.1659C43.7451 26.3347 44.6248 26.2481 45.4242 25.9169C46.2237 25.5858 46.907 25.0251 47.3877 24.3056C47.8684 23.5861 48.125 22.7403 48.125 21.875C48.1307 21.2989 48.0214 20.7274 47.8035 20.194C47.5857 19.6607 47.2636 19.1761 46.8562 18.7687C46.4488 18.3613 45.9643 18.0393 45.4309 17.8214C44.8976 17.6036 44.3261 17.4943 43.75 17.5Z" fill="#09244B"/>
<path d="M26.25 17.5C25.3847 17.5 24.5388 17.7566 23.8194 18.2373C23.0999 18.718 22.5392 19.4013 22.208 20.2007C21.8769 21.0002 21.7903 21.8798 21.9591 22.7285C22.1279 23.5772 22.5446 24.3567 23.1564 24.9686C23.7683 25.5804 24.5478 25.9971 25.3965 26.1659C26.2451 26.3347 27.1248 26.2481 27.9242 25.9169C28.7237 25.5858 29.407 25.0251 29.8877 24.3056C30.3684 23.5861 30.625 22.7403 30.625 21.875C30.6307 21.2989 30.5214 20.7274 30.3035 20.194C30.0857 19.6607 29.7636 19.1761 29.3562 18.7687C28.9488 18.3613 28.4643 18.0393 27.9309 17.8214C27.3976 17.6036 26.8261 17.4943 26.25 17.5Z" fill="#09244B"/>
<path d="M38.7971 65.625L35 63.4375L43.75 48.125H56.875C57.4498 48.126 58.0192 48.0135 58.5504 47.794C59.0816 47.5745 59.5643 47.2522 59.9708 46.8458C60.3772 46.4393 60.6995 45.9566 60.919 45.4254C61.1385 44.8942 61.251 44.3248 61.25 43.75V13.125C61.251 12.5502 61.1385 11.9808 60.919 11.4496C60.6995 10.9184 60.3772 10.4357 59.9708 10.0292C59.5643 9.62277 59.0816 9.30055 58.5504 9.08103C58.0192 8.86151 57.4498 8.74902 56.875 8.75H13.125C12.5502 8.74902 11.9808 8.86151 11.4496 9.08103C10.9184 9.30055 10.4357 9.62277 10.0292 10.0292C9.62277 10.4357 9.30055 10.9184 9.08103 11.4496C8.86151 11.9808 8.74902 12.5502 8.75 13.125V43.75C8.74902 44.3248 8.86151 44.8942 9.08103 45.4254C9.30055 45.9566 9.62277 46.4393 10.0292 46.8458C10.4357 47.2522 10.9184 47.5745 11.4496 47.794C11.9808 48.0135 12.5502 48.126 13.125 48.125H32.8125V52.5H13.125C11.9759 52.5002 10.838 52.274 9.77628 51.8344C8.71459 51.3947 7.74992 50.7502 6.93737 49.9376C6.12482 49.1251 5.4803 48.1604 5.04064 47.0987C4.60099 46.037 4.3748 44.8991 4.375 43.75V13.125C4.37466 11.9758 4.60075 10.8379 5.04035 9.77611C5.47996 8.71436 6.12447 7.74963 6.93705 6.93705C7.74963 6.12447 8.71436 5.47996 9.77611 5.04035C10.8379 4.60075 11.9758 4.37466 13.125 4.375H56.875C58.0242 4.37466 59.1621 4.60075 60.2239 5.04035C61.2856 5.47996 62.2504 6.12447 63.063 6.93705C63.8755 7.74963 64.52 8.71436 64.9596 9.77611C65.3993 10.8379 65.6253 11.9758 65.625 13.125V43.75C65.6252 44.8991 65.399 46.037 64.9594 47.0987C64.5197 48.1604 63.8752 49.1251 63.0626 49.9376C62.2501 50.7502 61.2854 51.3947 60.2237 51.8344C59.162 52.274 58.0241 52.5002 56.875 52.5H46.2976L38.7971 65.625Z" fill="#09244B"/>
</g>
<defs>
<clipPath id="clip0_1_189">
<rect width="70" height="70" fill="white"/>
</clipPath>
</defs>
</svg>
