<svg width="70" height="70" viewBox="0 0 70 70" fill="none" xmlns="http://www.w3.org/2000/svg">
<path d="M49.5833 17.5V47.4812L53.9583 51.8884L58.3333 47.4812V17.5H49.5833ZM49.5833 14.5834H58.3333V8.79297H49.5833V14.5834ZM61.25 20.4167V48.0821C61.25 48.467 61.0978 48.8363 60.8266 49.1095L54.9933 54.9858C54.4229 55.5603 53.4937 55.5603 52.9233 54.9858L47.09 49.1095C46.8188 48.8363 46.6666 48.467 46.6666 48.0821V40.8334H45.2083C42.792 40.8334 40.8333 38.8746 40.8333 36.4584V27.7084C40.8333 25.2921 42.792 23.3334 45.2083 23.3334H46.6666V20.4167H17.5V42.2917C17.5 43.0971 16.847 43.75 16.0416 43.75H14.5833C9.7508 43.75 5.83329 47.6675 5.83329 52.5C5.83329 57.3325 9.7508 61.25 14.5833 61.25H64.1666V20.4167H61.25ZM61.25 17.5H65.625C66.4304 17.5 67.0833 18.153 67.0833 18.9584V62.7084C67.0833 63.5138 66.4304 64.1667 65.625 64.1667H14.5833C8.13997 64.1667 2.91663 58.9434 2.91663 52.5V18.9584C2.91663 11.7096 8.79289 5.83337 16.0416 5.83337C16.847 5.83337 17.5 6.48629 17.5 7.29171V17.5H46.6666V7.33464C46.6666 6.52922 47.3195 5.8763 48.125 5.8763H59.7916C60.597 5.8763 61.25 6.52922 61.25 7.33464V17.5ZM46.6666 26.25H45.2083C44.4029 26.25 43.75 26.903 43.75 27.7084V36.4584C43.75 37.2638 44.4029 37.9167 45.2083 37.9167H46.6666V26.25ZM5.83329 44.7831C7.97105 42.361 11.0988 40.8334 14.5833 40.8334V8.85342C9.6362 9.56105 5.83329 13.8156 5.83329 18.9584V44.7831ZM24.7916 23.3334H33.5416C35.9579 23.3334 37.9166 25.2921 37.9166 27.7084V36.4584C37.9166 38.8746 35.9579 40.8334 33.5416 40.8334H24.7916C22.3754 40.8334 20.4166 38.8746 20.4166 36.4584V27.7084C20.4166 25.2921 22.3754 23.3334 24.7916 23.3334ZM24.7916 26.25C23.9862 26.25 23.3333 26.903 23.3333 27.7084V36.4584C23.3333 37.2638 23.9862 37.9167 24.7916 37.9167H33.5416C34.347 37.9167 35 37.2638 35 36.4584V27.7084C35 26.903 34.347 26.25 33.5416 26.25H24.7916ZM21.875 49.5834C21.0695 49.5834 20.4166 48.9305 20.4166 48.125C20.4166 47.3196 21.0695 46.6667 21.875 46.6667H42.2916C43.097 46.6667 43.75 47.3196 43.75 48.125C43.75 48.9305 43.097 49.5834 42.2916 49.5834H21.875ZM21.875 55.4167C21.0695 55.4167 20.4166 54.7638 20.4166 53.9584C20.4166 53.153 21.0695 52.5 21.875 52.5H45.2083C46.0137 52.5 46.6666 53.153 46.6666 53.9584C46.6666 54.7638 46.0137 55.4167 45.2083 55.4167H21.875Z" fill="#09244B"/>
</svg>
