<svg width="393" height="89" viewBox="0 0 393 89" fill="none" xmlns="http://www.w3.org/2000/svg">
<path fill-rule="evenodd" clip-rule="evenodd" d="M0 -7.62939e-06H10.5H135L77 9.99999H9.5L4 49L0 88.5V9.06666V-7.62939e-06ZM218 31H213V63H218V49.2206L223.102 56.0672L228.429 63.2152H233.894L221.31 46.5367L233.894 31.229H228.429L223.102 37.7894L218 44.0733V31ZM106.02 31.229H101V32V36.7123V47L101 63.2152H106.02V44.4804H106V36.7123H106.02V31.229ZM115.64 31.229H106.02V36.7123H115.64V36.7126C117.564 36.7629 119.109 38.482 119.109 40.5953C119.109 42.7086 117.564 44.4277 115.64 44.478V44.4804H106.02V49.9637H115.64V49.9609C120.28 49.8396 124.006 45.6934 124.006 40.5963C124.006 35.4992 120.28 31.353 115.64 31.2316V31.229ZM84.0121 44.0197C85.5932 42.7745 86.637 40.6308 86.637 38.1952C86.637 34.3479 84.0325 31.229 80.8197 31.229C77.6069 31.229 75.0024 34.3479 75.0024 38.1952C75.0024 40.8183 76.213 43.1027 78.0017 44.291C74.586 45.3052 72 48.8622 72 53.2514C72 58.4639 75.5286 62.6895 79.8815 62.6895C83.1596 62.6895 86.1047 60.7175 87.3592 57.5173L89.7985 61.9978H95.0528L84.0121 44.0197ZM82.5086 37.9705C82.5086 39.2116 81.6684 40.2177 80.632 40.2177C79.5957 40.2177 78.7555 39.2116 78.7555 37.9705C78.7555 36.7295 79.5957 35.7234 80.632 35.7234C81.6684 35.7234 82.5086 36.7295 82.5086 37.9705ZM79.6938 56.8469C81.4557 56.8469 82.8839 55.1365 82.8839 53.0266C82.8839 50.9168 81.4557 49.2064 79.6938 49.2064C77.932 49.2064 76.5037 50.9168 76.5037 53.0266C76.5037 55.1365 77.932 56.8469 79.6938 56.8469ZM165.405 50.8808L151.601 36.2554L147 31.229V63.2152L151.601 58.4173V43.7039L165.405 58.1888L170.006 63.2152V31.229L165.405 36.0269V50.8808ZM290 31.229H313.006V36.1499H295V43.5314H310.45V48.4523H295V58.2942H313.006V63.2152H290V63V58.2942V48.4523V43.5314V36.1499V32V31.229ZM270.322 31.229H261V32V36.6734V57.7707V63.2152H270.322V63.2119C277.906 63.0308 284.006 55.9414 284.006 47.2223C284.006 38.5033 277.906 31.4138 270.322 31.2327V31.229ZM266 57.7707H270.123V57.7671C275.35 57.7269 279.576 53.0203 279.576 47.2203C279.576 41.4202 275.35 36.7137 270.123 36.6734H266V57.7707ZM321 31.229H327.789L337.675 51.3942L347.442 31.229H354.231L337.675 63.2152L321 31.229ZM201.463 34.0892C198.995 32.1907 195.445 31 191.5 31C184.044 31 178 35.2533 178 40.5C178 42.6649 179.029 44.6607 180.762 46.2583L180.76 46.2596L181.5 47L182.358 47.4904C184.316 48.7591 186.809 49.6257 189.571 49.9038C189.694 49.9359 189.816 49.968 189.938 50.0001L190 50C193.59 50 196.5 51 196.5 54C196.5 56.5 193.59 57.5 190 57.5C188.042 57.5 185.543 56.7365 183.675 55.7288C183.405 55.6014 183.113 55.4621 182.795 55.3097C182.043 54.9501 181.14 54.518 180 54L178.006 58.4857C180.384 61.1948 184.643 63 189.5 63C196.956 63 203 58.7467 203 53.5C203 51.3351 201.971 49.3393 200.238 47.7417L200.253 47.7329L200.092 47.6092C199.69 47.252 199.253 46.9156 198.784 46.6027L198.352 46.2706C198.231 46.2163 198.109 46.163 197.985 46.1108C196.109 45.0423 193.817 44.3207 191.307 44.0844C191.19 44.0536 191.073 44.0228 190.957 43.9921C188.222 43.9108 185.967 43.1931 185.244 41.3678C185.085 41.1091 185 40.8281 185 40.52C185 40.4256 185.002 40.3336 185.007 40.2441C185.002 40.1643 185 40.0829 185 40C185 37.5 187.91 36.5 191.5 36.5C194.05 36.5 197.517 37.7949 199.313 39.2378L199.317 39.2396L201.463 34.0892ZM42.0362 31.229H37V63.2152H42.0362V38.0832L45.7375 43.5665L50.6726 50.8776L56.0497 43.5665L60.0825 38.0832V31.229L50.6726 43.5665L42.0362 31.229V31.229ZM65.1188 31.229H60.0826V63.2152H65.1188V31.229ZM382.5 88.5H393V79.4333V0L389 39.5L383.5 78.5H316L258 88.5H382.5ZM108 58H108.5V81H108V58ZM211.5 54H211V77H211.5V54ZM258 20H258.5V43H258V20ZM34.5 17H34V40H34.5V17ZM144 19H144.5V42H144V19ZM362 21.4121L361 21.4121L350 42.4121L351 42.4121L362 21.4121Z" fill="url(#paint0_linear_3_4)"/>
<defs>
<linearGradient id="paint0_linear_3_4" x1="1.49792e-06" y1="44" x2="548.5" y2="38.5" gradientUnits="userSpaceOnUse">
<stop stop-color="#D9D9D9"/>
<stop offset="1" stop-color="#0038FF" stop-opacity="0"/>
</linearGradient>
</defs>
</svg>
