<svg width="407" height="614" viewBox="0 0 407 614" fill="none" xmlns="http://www.w3.org/2000/svg">
<path d="M289.5 289.5L254.5 324.5H219.5M289.5 289.5H324.5L359.5 324.5M289.5 289.5H254.5M254.5 289.5L219.5 254.5H184.5L149.5 289.5M254.5 289.5H219.5M359.5 324.5H324.5H289.5M359.5 324.5H394.5H429.5" stroke="#4A5CFF" stroke-width="5.83"/>
<path d="M210.75 289.5C210.75 291.821 211.672 294.046 213.313 295.687C214.954 297.328 217.179 298.25 219.5 298.25C221.821 298.25 224.046 297.328 225.687 295.687C227.328 294.046 228.25 291.821 228.25 289.5C228.25 287.179 227.328 284.954 225.687 283.313C224.046 281.672 221.821 280.75 219.5 280.75C217.179 280.75 214.954 281.672 213.313 283.313C211.672 284.954 210.75 287.179 210.75 289.5ZM210.75 324.5C210.75 326.821 211.672 329.046 213.313 330.687C214.954 332.328 217.179 333.25 219.5 333.25C221.821 333.25 224.046 332.328 225.687 330.687C227.328 329.046 228.25 326.821 228.25 324.5C228.25 322.179 227.328 319.954 225.687 318.313C224.046 316.672 221.821 315.75 219.5 315.75C217.179 315.75 214.954 316.672 213.313 318.313C211.672 319.954 210.75 322.179 210.75 324.5ZM140.75 289.5C140.75 291.821 141.672 294.046 143.313 295.687C144.954 297.328 147.179 298.25 149.5 298.25C151.821 298.25 154.046 297.328 155.687 295.687C157.328 294.046 158.25 291.821 158.25 289.5C158.25 287.179 157.328 284.954 155.687 283.313C154.046 281.672 151.821 280.75 149.5 280.75C147.179 280.75 144.954 281.672 143.313 283.313C141.672 284.954 140.75 287.179 140.75 289.5ZM280.75 324.5C280.75 326.821 281.672 329.046 283.313 330.687C284.954 332.328 287.179 333.25 289.5 333.25C291.821 333.25 294.046 332.328 295.687 330.687C297.328 329.046 298.25 326.821 298.25 324.5C298.25 322.179 297.328 319.954 295.687 318.313C294.046 316.672 291.821 315.75 289.5 315.75C287.179 315.75 284.954 316.672 283.313 318.313C281.672 319.954 280.75 322.179 280.75 324.5Z" fill="#4A5CFF"/>
<path d="M289.5 289.5L254.5 324.5H219.5M289.5 289.5H324.5L359.5 324.5M289.5 289.5H254.5M254.5 289.5L219.5 254.5H184.5L149.5 289.5M254.5 289.5H219.5M359.5 324.5H324.5H289.5M359.5 324.5H394.5H429.5" stroke="#4A5CFF" stroke-width="5.83"/>
<path d="M210.75 289.5C210.75 291.821 211.672 294.046 213.313 295.687C214.954 297.328 217.179 298.25 219.5 298.25C221.821 298.25 224.046 297.328 225.687 295.687C227.328 294.046 228.25 291.821 228.25 289.5C228.25 287.179 227.328 284.954 225.687 283.313C224.046 281.672 221.821 280.75 219.5 280.75C217.179 280.75 214.954 281.672 213.313 283.313C211.672 284.954 210.75 287.179 210.75 289.5ZM210.75 324.5C210.75 326.821 211.672 329.046 213.313 330.687C214.954 332.328 217.179 333.25 219.5 333.25C221.821 333.25 224.046 332.328 225.687 330.687C227.328 329.046 228.25 326.821 228.25 324.5C228.25 322.179 227.328 319.954 225.687 318.313C224.046 316.672 221.821 315.75 219.5 315.75C217.179 315.75 214.954 316.672 213.313 318.313C211.672 319.954 210.75 322.179 210.75 324.5ZM140.75 289.5C140.75 291.821 141.672 294.046 143.313 295.687C144.954 297.328 147.179 298.25 149.5 298.25C151.821 298.25 154.046 297.328 155.687 295.687C157.328 294.046 158.25 291.821 158.25 289.5C158.25 287.179 157.328 284.954 155.687 283.313C154.046 281.672 151.821 280.75 149.5 280.75C147.179 280.75 144.954 281.672 143.313 283.313C141.672 284.954 140.75 287.179 140.75 289.5ZM280.75 324.5C280.75 326.821 281.672 329.046 283.313 330.687C284.954 332.328 287.179 333.25 289.5 333.25C291.821 333.25 294.046 332.328 295.687 330.687C297.328 329.046 298.25 326.821 298.25 324.5C298.25 322.179 297.328 319.954 295.687 318.313C294.046 316.672 291.821 315.75 289.5 315.75C287.179 315.75 284.954 316.672 283.313 318.313C281.672 319.954 280.75 322.179 280.75 324.5Z" fill="#4A5CFF"/>
<path d="M429.5 289.5H394.5H359.5L324.5 254.5H289.5" stroke="#8EB7F3" stroke-width="5.83"/>
<path d="M280.75 254.5C280.75 256.821 281.672 259.046 283.313 260.687C284.954 262.328 287.179 263.25 289.5 263.25C291.821 263.25 294.046 262.328 295.687 260.687C297.328 259.046 298.25 256.821 298.25 254.5C298.25 252.179 297.328 249.954 295.687 248.313C294.046 246.672 291.821 245.75 289.5 245.75C287.179 245.75 284.954 246.672 283.313 248.313C281.672 249.954 280.75 252.179 280.75 254.5Z" fill="#8EB7F3"/>
<path d="M429.5 359.5H394.5H359.5H324.5H289.5H254.5H219.5" stroke="#4A5CFF" stroke-width="5.83"/>
<path d="M210.75 359.5C210.75 361.821 211.672 364.046 213.313 365.687C214.954 367.328 217.179 368.25 219.5 368.25C221.821 368.25 224.046 367.328 225.687 365.687C227.328 364.046 228.25 361.821 228.25 359.5C228.25 357.179 227.328 354.954 225.687 353.313C224.046 351.672 221.821 350.75 219.5 350.75C217.179 350.75 214.954 351.672 213.313 353.313C211.672 354.954 210.75 357.179 210.75 359.5Z" fill="#4A5CFF"/>
<path d="M359.5 429.5H324.5M359.5 429.5H394.5H429.5M359.5 429.5L324.5 464.5" stroke="#4A5CFF" stroke-width="5.83"/>
<path d="M315.75 464.5C315.75 466.821 316.672 469.046 318.313 470.687C319.954 472.328 322.179 473.25 324.5 473.25C326.821 473.25 329.046 472.328 330.687 470.687C332.328 469.046 333.25 466.821 333.25 464.5C333.25 462.179 332.328 459.954 330.687 458.313C329.046 456.672 326.821 455.75 324.5 455.75C322.179 455.75 319.954 456.672 318.313 458.313C316.672 459.954 315.75 462.179 315.75 464.5ZM315.75 429.5C315.75 431.821 316.672 434.046 318.313 435.687C319.954 437.328 322.179 438.25 324.5 438.25C326.821 438.25 329.046 437.328 330.687 435.687C332.328 434.046 333.25 431.821 333.25 429.5C333.25 427.179 332.328 424.954 330.687 423.313C329.046 421.672 326.821 420.75 324.5 420.75C322.179 420.75 319.954 421.672 318.313 423.313C316.672 424.954 315.75 427.179 315.75 429.5Z" fill="#4A5CFF"/>
<path d="M219.5 499.5L184.5 464.5H149.5L114.5 429.5H79.5M219.5 499.5H254.5H289.5H324.5L359.5 464.5H394.5H429.5M219.5 499.5H184.5" stroke="#4A5CFF" stroke-width="5.83"/>
<path d="M219.5 499.5L184.5 464.5H149.5L114.5 429.5H79.5M219.5 499.5H254.5H289.5H324.5L359.5 464.5H394.5H429.5M219.5 499.5H184.5" stroke="#4A5CFF" stroke-width="5.83"/>
<path d="M175.75 499.5C175.75 501.821 176.672 504.046 178.313 505.687C179.954 507.328 182.179 508.25 184.5 508.25C186.821 508.25 189.046 507.328 190.687 505.687C192.328 504.046 193.25 501.821 193.25 499.5C193.25 497.179 192.328 494.954 190.687 493.313C189.046 491.672 186.821 490.75 184.5 490.75C182.179 490.75 179.954 491.672 178.313 493.313C176.672 494.954 175.75 497.179 175.75 499.5ZM70.75 429.5C70.75 431.821 71.6719 434.046 73.3129 435.687C74.9538 437.328 77.1794 438.25 79.5 438.25C81.8206 438.25 84.0462 437.328 85.6871 435.687C87.3281 434.046 88.25 431.821 88.25 429.5C88.25 427.179 87.3281 424.954 85.6871 423.313C84.0462 421.672 81.8206 420.75 79.5 420.75C77.1794 420.75 74.9538 421.672 73.3129 423.313C71.6719 424.954 70.75 427.179 70.75 429.5Z" fill="#4A5CFF"/>
<path d="M394.5 114.5H359.5M394.5 114.5L429.5 149.5M394.5 114.5L359.5 79.5H324.5H289.5M289.5 79.5L254.5 44.5H219.5M289.5 79.5H254.5H219.5" stroke="#4A5CFF" stroke-width="5.83"/>
<path d="M210.75 79.5C210.75 81.8206 211.672 84.0463 213.313 85.6872C214.954 87.3281 217.179 88.25 219.5 88.25C221.821 88.25 224.046 87.3281 225.687 85.6872C227.328 84.0463 228.25 81.8206 228.25 79.5C228.25 77.1794 227.328 74.9537 225.687 73.3128C224.046 71.6719 221.821 70.75 219.5 70.75C217.179 70.75 214.954 71.6719 213.313 73.3128C211.672 74.9537 210.75 77.1794 210.75 79.5ZM350.75 114.5C350.75 116.821 351.672 119.046 353.313 120.687C354.954 122.328 357.179 123.25 359.5 123.25C361.821 123.25 364.046 122.328 365.687 120.687C367.328 119.046 368.25 116.821 368.25 114.5C368.25 112.179 367.328 109.954 365.687 108.313C364.046 106.672 361.821 105.75 359.5 105.75C357.179 105.75 354.954 106.672 353.313 108.313C351.672 109.954 350.75 112.179 350.75 114.5ZM210.75 44.5C210.75 46.8206 211.672 49.0463 213.313 50.6872C214.954 52.3281 217.179 53.25 219.5 53.25C221.821 53.25 224.046 52.3281 225.687 50.6872C227.328 49.0463 228.25 46.8206 228.25 44.5C228.25 42.1794 227.328 39.9537 225.687 38.3128C224.046 36.6719 221.821 35.75 219.5 35.75C217.179 35.75 214.954 36.6719 213.313 38.3128C211.672 39.9537 210.75 42.1794 210.75 44.5Z" fill="#4A5CFF"/>
<path d="M429.5 499.5H394.5" stroke="#8EB7F3" stroke-width="5.83"/>
<path d="M385.75 499.5C385.75 501.821 386.672 504.046 388.313 505.687C389.954 507.328 392.179 508.25 394.5 508.25C396.821 508.25 399.046 507.328 400.687 505.687C402.328 504.046 403.25 501.821 403.25 499.5C403.25 497.179 402.328 494.954 400.687 493.313C399.046 491.672 396.821 490.75 394.5 490.75C392.179 490.75 389.954 491.672 388.313 493.313C386.672 494.954 385.75 497.179 385.75 499.5Z" fill="#8EB7F3"/>
<path d="M79.5 499.5L44.5 534.5H9.5M79.5 499.5H114.5H149.5M79.5 499.5H44.5M149.5 499.5L114.5 534.5M149.5 499.5L184.5 534.5H219.5H254.5H289.5H324.5M324.5 534.5L289.5 569.5L254.5 604.5H219.5M324.5 534.5H359.5H394.5H429.5" stroke="#8EB7F3" stroke-width="5.83"/>
<path d="M35.75 499.5C35.75 501.821 36.6719 504.046 38.3129 505.687C39.9538 507.328 42.1794 508.25 44.5 508.25C46.8206 508.25 49.0462 507.328 50.6871 505.687C52.3281 504.046 53.25 501.821 53.25 499.5C53.25 497.179 52.3281 494.954 50.6871 493.313C49.0462 491.672 46.8206 490.75 44.5 490.75C42.1794 490.75 39.9538 491.672 38.3129 493.313C36.6719 494.954 35.75 497.179 35.75 499.5ZM0.75 534.5C0.75 536.821 1.67192 539.046 3.31287 540.687C4.95381 542.328 7.17936 543.25 9.5 543.25C11.8206 543.25 14.0462 542.328 15.6871 540.687C17.3281 539.046 18.25 536.821 18.25 534.5C18.25 532.179 17.3281 529.954 15.6871 528.313C14.0462 526.672 11.8206 525.75 9.5 525.75C7.17936 525.75 4.95381 526.672 3.31287 528.313C1.67192 529.954 0.75 532.179 0.75 534.5ZM105.75 534.5C105.75 536.821 106.672 539.046 108.313 540.687C109.954 542.328 112.179 543.25 114.5 543.25C116.821 543.25 119.046 542.328 120.687 540.687C122.328 539.046 123.25 536.821 123.25 534.5C123.25 532.179 122.328 529.954 120.687 528.313C119.046 526.672 116.821 525.75 114.5 525.75C112.179 525.75 109.954 526.672 108.313 528.313C106.672 529.954 105.75 532.179 105.75 534.5ZM210.75 604.5C210.75 606.821 211.672 609.046 213.313 610.687C214.954 612.328 217.179 613.25 219.5 613.25C221.821 613.25 224.046 612.328 225.687 610.687C227.328 609.046 228.25 606.821 228.25 604.5C228.25 602.179 227.328 599.954 225.687 598.313C224.046 596.672 221.821 595.75 219.5 595.75C217.179 595.75 214.954 596.672 213.313 598.313C211.672 599.954 210.75 602.179 210.75 604.5Z" fill="#8EB7F3"/>
<path d="M359.5 44.5L324.5 9.5H289.5M359.5 44.5L394.5 79.5H429.5M359.5 44.5H324.5" stroke="#4A5CFF" stroke-width="5.83"/>
<path d="M315.75 44.5C315.75 46.8206 316.672 49.0463 318.313 50.6872C319.954 52.3281 322.179 53.25 324.5 53.25C326.821 53.25 329.046 52.3281 330.687 50.6872C332.328 49.0463 333.25 46.8206 333.25 44.5C333.25 42.1794 332.328 39.9537 330.687 38.3128C329.046 36.6719 326.821 35.75 324.5 35.75C322.179 35.75 319.954 36.6719 318.313 38.3128C316.672 39.9537 315.75 42.1794 315.75 44.5ZM280.75 9.5C280.75 11.8206 281.672 14.0462 283.313 15.6872C284.954 17.3281 287.179 18.25 289.5 18.25C291.821 18.25 294.046 17.3281 295.687 15.6872C297.328 14.0462 298.25 11.8206 298.25 9.5C298.25 7.17936 297.328 4.95376 295.687 3.31282C294.046 1.67188 291.821 0.75 289.5 0.75C287.179 0.75 284.954 1.67188 283.313 3.31282C281.672 4.95376 280.75 7.17936 280.75 9.5Z" fill="#4A5CFF"/>
</svg>
