<svg width="375" height="760" viewBox="0 0 375 760" fill="none" xmlns="http://www.w3.org/2000/svg">
<path d="M135.5 615L169.375 650H203.25M135.5 615H101.625L67.75 650M135.5 615H169.375M169.375 615L203.25 580H237.125L271 615M169.375 615H203.25M67.75 650H101.625H135.5M67.75 650H33.875H5.72205e-06" stroke="#4A5CFF" stroke-width="5.83"/>
<path d="M211.444 614.833C211.444 617.176 210.555 619.423 208.971 621.079C207.387 622.736 205.24 623.667 203 623.667C200.76 623.667 198.613 622.736 197.029 621.079C195.445 619.423 194.556 617.176 194.556 614.833C194.556 612.491 195.445 610.244 197.029 608.587C198.613 606.931 200.76 606 203 606C205.24 606 207.387 606.931 208.971 608.587C210.555 610.244 211.444 612.491 211.444 614.833ZM211.444 650.167C211.444 652.509 210.555 654.756 208.971 656.413C207.387 658.069 205.24 659 203 659C200.76 659 198.613 658.069 197.029 656.413C195.445 654.756 194.556 652.509 194.556 650.167C194.556 647.824 195.445 645.577 197.029 643.921C198.613 642.264 200.76 641.333 203 641.333C205.24 641.333 207.387 642.264 208.971 643.921C210.555 645.577 211.444 647.824 211.444 650.167ZM279 614.833C279 617.176 278.11 619.423 276.527 621.079C274.943 622.736 272.795 623.667 270.556 623.667C268.316 623.667 266.168 622.736 264.584 621.079C263.001 619.423 262.111 617.176 262.111 614.833C262.111 612.491 263.001 610.244 264.584 608.587C266.168 606.931 268.316 606 270.556 606C272.795 606 274.943 606.931 276.527 608.587C278.11 610.244 279 612.491 279 614.833ZM143.889 650.167C143.889 652.509 142.999 654.756 141.416 656.413C139.832 658.069 137.684 659 135.444 659C133.205 659 131.057 658.069 129.473 656.413C127.89 654.756 127 652.509 127 650.167C127 647.824 127.89 645.577 129.473 643.921C131.057 642.264 133.205 641.333 135.444 641.333C137.684 641.333 139.832 642.264 141.416 643.921C142.999 645.577 143.889 647.824 143.889 650.167Z" fill="#4A5CFF"/>
<path d="M2.86102e-06 231H38.25H76.5L114.75 196H153" stroke="#8EB7F3" stroke-width="5.83"/>
<path d="M163 196C163 198.387 161.999 200.676 160.217 202.364C158.436 204.052 156.02 205 153.5 205C150.98 205 148.564 204.052 146.783 202.364C145.001 200.676 144 198.387 144 196C144 193.613 145.001 191.324 146.783 189.636C148.564 187.948 150.98 187 153.5 187C156.02 187 158.436 187.948 160.217 189.636C161.999 191.324 163 193.613 163 196Z" fill="#8EB7F3"/>
<path d="M144.2 79L176.4 44H208.6L240.8 9H273M144.2 79H112H79.8H47.6L15.4 44H-16.8H-49M144.2 79H176.4" stroke="#4A5CFF" stroke-width="5.83"/>
<path d="M184.143 79.2C184.143 81.5339 183.292 83.7722 181.779 85.4226C180.265 87.0729 178.212 88 176.071 88C173.931 88 171.878 87.0729 170.364 85.4226C168.85 83.7722 168 81.5339 168 79.2C168 76.8661 168.85 74.6278 170.364 72.9774C171.878 71.3271 173.931 70.4 176.071 70.4C178.212 70.4 180.265 71.3271 181.779 72.9774C183.292 74.6278 184.143 76.8661 184.143 79.2ZM281 8.8C281 11.1339 280.15 13.3722 278.636 15.0226C277.122 16.6729 275.069 17.6 272.929 17.6C270.788 17.6 268.735 16.6729 267.221 15.0226C265.708 13.3722 264.857 11.1339 264.857 8.8C264.857 6.46609 265.708 4.22777 267.221 2.57745C268.735 0.92713 270.788 0 272.929 0C275.069 0 277.122 0.92713 278.636 2.57745C280.15 4.22777 281 6.46609 281 8.8Z" fill="#4A5CFF"/>
<path d="M42.3333 155H84.6667M42.3333 155L2.6226e-06 190M42.3333 155L84.6667 120H127H169.333M169.333 120L211.667 85H254M169.333 120H211.667H254" stroke="#4A5CFF" stroke-width="5.83"/>
<path d="M265 120C265 122.334 263.882 124.572 261.892 126.223C259.902 127.873 257.203 128.8 254.389 128.8C251.575 128.8 248.876 127.873 246.886 126.223C244.896 124.572 243.778 122.334 243.778 120C243.778 117.666 244.896 115.428 246.886 113.777C248.876 112.127 251.575 111.2 254.389 111.2C257.203 111.2 259.902 112.127 261.892 113.777C263.882 115.428 265 117.666 265 120ZM95.2222 155.2C95.2222 157.534 94.1042 159.772 92.1142 161.423C90.1243 163.073 87.4253 164 84.6111 164C81.7969 164 79.0979 163.073 77.108 161.423C75.118 159.772 74 157.534 74 155.2C74 152.866 75.118 150.628 77.108 148.977C79.0979 147.327 81.7969 146.4 84.6111 146.4C87.4253 146.4 90.1243 147.327 92.1142 148.977C94.1042 150.628 95.2222 152.866 95.2222 155.2ZM265 84.8C265 87.1339 263.882 89.3722 261.892 91.0226C259.902 92.6729 257.203 93.6 254.389 93.6C251.575 93.6 248.876 92.6729 246.886 91.0226C244.896 89.3722 243.778 87.1339 243.778 84.8C243.778 82.4661 244.896 80.2278 246.886 78.5774C248.876 76.9271 251.575 76 254.389 76C257.203 76 259.902 76.9271 261.892 78.5774C263.882 80.2278 265 82.4661 265 84.8Z" fill="#4A5CFF"/>
<path d="M305.833 647L336.417 682H367M305.833 647H275.25H244.667M305.833 647H336.417M244.667 647L275.25 682M244.667 647L214.083 682H183.5H152.917H122.333H91.75M91.75 682L122.333 717L152.917 752H183.5M91.75 682H61.1667H30.5833H3.09944e-06" stroke="#8EB7F3" stroke-width="5.83"/>
<path d="M344.385 646.714C344.385 649.025 343.578 651.242 342.143 652.876C340.707 654.51 338.761 655.429 336.731 655.429C334.701 655.429 332.754 654.51 331.319 652.876C329.883 651.242 329.077 649.025 329.077 646.714C329.077 644.403 329.883 642.187 331.319 640.552C332.754 638.918 334.701 638 336.731 638C338.761 638 340.707 638.918 342.143 640.552C343.578 642.187 344.385 644.403 344.385 646.714ZM375 681.571C375 683.883 374.194 686.099 372.758 687.733C371.323 689.368 369.376 690.286 367.346 690.286C365.316 690.286 363.369 689.368 361.934 687.733C360.499 686.099 359.692 683.883 359.692 681.571C359.692 679.26 360.499 677.044 361.934 675.409C363.369 673.775 365.316 672.857 367.346 672.857C369.376 672.857 371.323 673.775 372.758 675.409C374.194 677.044 375 679.26 375 681.571ZM283.154 681.571C283.154 683.883 282.347 686.099 280.912 687.733C279.477 689.368 277.53 690.286 275.5 690.286C273.47 690.286 271.523 689.368 270.088 687.733C268.653 686.099 267.846 683.883 267.846 681.571C267.846 679.26 268.653 677.044 270.088 675.409C271.523 673.775 273.47 672.857 275.5 672.857C277.53 672.857 279.477 673.775 280.912 675.409C282.347 677.044 283.154 679.26 283.154 681.571ZM191.308 751.286C191.308 753.597 190.501 755.813 189.066 757.448C187.631 759.082 185.684 760 183.654 760C181.624 760 179.677 759.082 178.242 757.448C176.806 755.813 176 753.597 176 751.286C176 748.975 176.806 746.758 178.242 745.124C179.677 743.49 181.624 742.571 183.654 742.571C185.684 742.571 187.631 743.49 189.066 745.124C190.501 746.758 191.308 748.975 191.308 751.286Z" fill="#8EB7F3"/>
</svg>
