<svg width="1920" height="885" viewBox="0 0 1920 885" fill="none" xmlns="http://www.w3.org/2000/svg">
<g filter="url(#filter0_f_1_118)">
<path d="M1802.5 410.5L1767.5 445.5H1732.5M1802.5 410.5H1837.5L1872.5 445.5M1802.5 410.5H1767.5M1767.5 410.5L1732.5 375.5H1697.5L1662.5 410.5M1767.5 410.5H1732.5M1872.5 445.5H1837.5H1802.5M1872.5 445.5H1907.5H1942.5" stroke="#4A5CFF" stroke-width="5.83"/>
<path d="M1723.75 410.5C1723.75 412.821 1724.67 415.046 1726.31 416.687C1727.95 418.328 1730.18 419.25 1732.5 419.25C1734.82 419.25 1737.05 418.328 1738.69 416.687C1740.33 415.046 1741.25 412.821 1741.25 410.5C1741.25 408.179 1740.33 405.954 1738.69 404.313C1737.05 402.672 1734.82 401.75 1732.5 401.75C1730.18 401.75 1727.95 402.672 1726.31 404.313C1724.67 405.954 1723.75 408.179 1723.75 410.5ZM1723.75 445.5C1723.75 447.821 1724.67 450.046 1726.31 451.687C1727.95 453.328 1730.18 454.25 1732.5 454.25C1734.82 454.25 1737.05 453.328 1738.69 451.687C1740.33 450.046 1741.25 447.821 1741.25 445.5C1741.25 443.179 1740.33 440.954 1738.69 439.313C1737.05 437.672 1734.82 436.75 1732.5 436.75C1730.18 436.75 1727.95 437.672 1726.31 439.313C1724.67 440.954 1723.75 443.179 1723.75 445.5ZM1653.75 410.5C1653.75 412.821 1654.67 415.046 1656.31 416.687C1657.95 418.328 1660.18 419.25 1662.5 419.25C1664.82 419.25 1667.05 418.328 1668.69 416.687C1670.33 415.046 1671.25 412.821 1671.25 410.5C1671.25 408.179 1670.33 405.954 1668.69 404.313C1667.05 402.672 1664.82 401.75 1662.5 401.75C1660.18 401.75 1657.95 402.672 1656.31 404.313C1654.67 405.954 1653.75 408.179 1653.75 410.5ZM1793.75 445.5C1793.75 447.821 1794.67 450.046 1796.31 451.687C1797.95 453.328 1800.18 454.25 1802.5 454.25C1804.82 454.25 1807.05 453.328 1808.69 451.687C1810.33 450.046 1811.25 447.821 1811.25 445.5C1811.25 443.179 1810.33 440.954 1808.69 439.313C1807.05 437.672 1804.82 436.75 1802.5 436.75C1800.18 436.75 1797.95 437.672 1796.31 439.313C1794.67 440.954 1793.75 443.179 1793.75 445.5Z" fill="#4A5CFF"/>
<path d="M1802.5 410.5L1767.5 445.5H1732.5M1802.5 410.5H1837.5L1872.5 445.5M1802.5 410.5H1767.5M1767.5 410.5L1732.5 375.5H1697.5L1662.5 410.5M1767.5 410.5H1732.5M1872.5 445.5H1837.5H1802.5M1872.5 445.5H1907.5H1942.5" stroke="#4A5CFF" stroke-width="5.83"/>
<path d="M1723.75 410.5C1723.75 412.821 1724.67 415.046 1726.31 416.687C1727.95 418.328 1730.18 419.25 1732.5 419.25C1734.82 419.25 1737.05 418.328 1738.69 416.687C1740.33 415.046 1741.25 412.821 1741.25 410.5C1741.25 408.179 1740.33 405.954 1738.69 404.313C1737.05 402.672 1734.82 401.75 1732.5 401.75C1730.18 401.75 1727.95 402.672 1726.31 404.313C1724.67 405.954 1723.75 408.179 1723.75 410.5ZM1723.75 445.5C1723.75 447.821 1724.67 450.046 1726.31 451.687C1727.95 453.328 1730.18 454.25 1732.5 454.25C1734.82 454.25 1737.05 453.328 1738.69 451.687C1740.33 450.046 1741.25 447.821 1741.25 445.5C1741.25 443.179 1740.33 440.954 1738.69 439.313C1737.05 437.672 1734.82 436.75 1732.5 436.75C1730.18 436.75 1727.95 437.672 1726.31 439.313C1724.67 440.954 1723.75 443.179 1723.75 445.5ZM1653.75 410.5C1653.75 412.821 1654.67 415.046 1656.31 416.687C1657.95 418.328 1660.18 419.25 1662.5 419.25C1664.82 419.25 1667.05 418.328 1668.69 416.687C1670.33 415.046 1671.25 412.821 1671.25 410.5C1671.25 408.179 1670.33 405.954 1668.69 404.313C1667.05 402.672 1664.82 401.75 1662.5 401.75C1660.18 401.75 1657.95 402.672 1656.31 404.313C1654.67 405.954 1653.75 408.179 1653.75 410.5ZM1793.75 445.5C1793.75 447.821 1794.67 450.046 1796.31 451.687C1797.95 453.328 1800.18 454.25 1802.5 454.25C1804.82 454.25 1807.05 453.328 1808.69 451.687C1810.33 450.046 1811.25 447.821 1811.25 445.5C1811.25 443.179 1810.33 440.954 1808.69 439.313C1807.05 437.672 1804.82 436.75 1802.5 436.75C1800.18 436.75 1797.95 437.672 1796.31 439.313C1794.67 440.954 1793.75 443.179 1793.75 445.5Z" fill="#4A5CFF"/>
<path d="M135.5 735L169.375 770H203.25M135.5 735H101.625L67.75 770M135.5 735H169.375M169.375 735L203.25 700H237.125L271 735M169.375 735H203.25M67.75 770H101.625H135.5M67.75 770H33.875H5.72205e-06" stroke="#4A5CFF" stroke-width="5.83"/>
<path d="M211.444 734.833C211.444 737.176 210.555 739.423 208.971 741.079C207.387 742.736 205.24 743.667 203 743.667C200.76 743.667 198.613 742.736 197.029 741.079C195.445 739.423 194.556 737.176 194.556 734.833C194.556 732.491 195.445 730.244 197.029 728.587C198.613 726.931 200.76 726 203 726C205.24 726 207.387 726.931 208.971 728.587C210.555 730.244 211.444 732.491 211.444 734.833ZM211.444 770.167C211.444 772.509 210.555 774.756 208.971 776.413C207.387 778.069 205.24 779 203 779C200.76 779 198.613 778.069 197.029 776.413C195.445 774.756 194.556 772.509 194.556 770.167C194.556 767.824 195.445 765.577 197.029 763.921C198.613 762.264 200.76 761.333 203 761.333C205.24 761.333 207.387 762.264 208.971 763.921C210.555 765.577 211.444 767.824 211.444 770.167ZM279 734.833C279 737.176 278.11 739.423 276.527 741.079C274.943 742.736 272.795 743.667 270.556 743.667C268.316 743.667 266.168 742.736 264.584 741.079C263.001 739.423 262.111 737.176 262.111 734.833C262.111 732.491 263.001 730.244 264.584 728.587C266.168 726.931 268.316 726 270.556 726C272.795 726 274.943 726.931 276.527 728.587C278.11 730.244 279 732.491 279 734.833ZM143.889 770.167C143.889 772.509 142.999 774.756 141.416 776.413C139.832 778.069 137.684 779 135.444 779C133.205 779 131.057 778.069 129.473 776.413C127.89 774.756 127 772.509 127 770.167C127 767.824 127.89 765.577 129.473 763.921C131.057 762.264 133.205 761.333 135.444 761.333C137.684 761.333 139.832 762.264 141.416 763.921C142.999 765.577 143.889 767.824 143.889 770.167Z" fill="#4A5CFF"/>
<path d="M1942.5 410.5H1907.5H1872.5L1837.5 375.5H1802.5" stroke="#8EB7F3" stroke-width="5.83"/>
<path d="M1793.75 375.5C1793.75 377.821 1794.67 380.046 1796.31 381.687C1797.95 383.328 1800.18 384.25 1802.5 384.25C1804.82 384.25 1807.05 383.328 1808.69 381.687C1810.33 380.046 1811.25 377.821 1811.25 375.5C1811.25 373.179 1810.33 370.954 1808.69 369.313C1807.05 367.672 1804.82 366.75 1802.5 366.75C1800.18 366.75 1797.95 367.672 1796.31 369.313C1794.67 370.954 1793.75 373.179 1793.75 375.5Z" fill="#8EB7F3"/>
<path d="M2.86102e-06 351H38.25H76.5L114.75 316H153" stroke="#8EB7F3" stroke-width="5.83"/>
<path d="M163 316C163 318.387 161.999 320.676 160.217 322.364C158.436 324.052 156.02 325 153.5 325C150.98 325 148.564 324.052 146.783 322.364C145.001 320.676 144 318.387 144 316C144 313.613 145.001 311.324 146.783 309.636C148.564 307.948 150.98 307 153.5 307C156.02 307 158.436 307.948 160.217 309.636C161.999 311.324 163 313.613 163 316Z" fill="#8EB7F3"/>
<path d="M1942.5 480.5H1907.5H1872.5H1837.5H1802.5H1767.5H1732.5" stroke="#4A5CFF" stroke-width="5.83"/>
<path d="M1723.75 480.5C1723.75 482.821 1724.67 485.046 1726.31 486.687C1727.95 488.328 1730.18 489.25 1732.5 489.25C1734.82 489.25 1737.05 488.328 1738.69 486.687C1740.33 485.046 1741.25 482.821 1741.25 480.5C1741.25 478.179 1740.33 475.954 1738.69 474.313C1737.05 472.672 1734.82 471.75 1732.5 471.75C1730.18 471.75 1727.95 472.672 1726.31 474.313C1724.67 475.954 1723.75 478.179 1723.75 480.5Z" fill="#4A5CFF"/>
<path d="M1872.5 550.5H1837.5M1872.5 550.5H1907.5H1942.5M1872.5 550.5L1837.5 585.5" stroke="#4A5CFF" stroke-width="5.83"/>
<path d="M1828.75 585.5C1828.75 587.821 1829.67 590.046 1831.31 591.687C1832.95 593.328 1835.18 594.25 1837.5 594.25C1839.82 594.25 1842.05 593.328 1843.69 591.687C1845.33 590.046 1846.25 587.821 1846.25 585.5C1846.25 583.179 1845.33 580.954 1843.69 579.313C1842.05 577.672 1839.82 576.75 1837.5 576.75C1835.18 576.75 1832.95 577.672 1831.31 579.313C1829.67 580.954 1828.75 583.179 1828.75 585.5ZM1828.75 550.5C1828.75 552.821 1829.67 555.046 1831.31 556.687C1832.95 558.328 1835.18 559.25 1837.5 559.25C1839.82 559.25 1842.05 558.328 1843.69 556.687C1845.33 555.046 1846.25 552.821 1846.25 550.5C1846.25 548.179 1845.33 545.954 1843.69 544.313C1842.05 542.672 1839.82 541.75 1837.5 541.75C1835.18 541.75 1832.95 542.672 1831.31 544.313C1829.67 545.954 1828.75 548.179 1828.75 550.5Z" fill="#4A5CFF"/>
<path d="M1732.5 620.5L1697.5 585.5H1662.5L1627.5 550.5H1592.5M1732.5 620.5H1767.5H1802.5H1837.5L1872.5 585.5H1907.5H1942.5M1732.5 620.5H1697.5" stroke="#4A5CFF" stroke-width="5.83"/>
<path d="M1732.5 620.5L1697.5 585.5H1662.5L1627.5 550.5H1592.5M1732.5 620.5H1767.5H1802.5H1837.5L1872.5 585.5H1907.5H1942.5M1732.5 620.5H1697.5" stroke="#4A5CFF" stroke-width="5.83"/>
<path d="M1688.75 620.5C1688.75 622.821 1689.67 625.046 1691.31 626.687C1692.95 628.328 1695.18 629.25 1697.5 629.25C1699.82 629.25 1702.05 628.328 1703.69 626.687C1705.33 625.046 1706.25 622.821 1706.25 620.5C1706.25 618.179 1705.33 615.954 1703.69 614.313C1702.05 612.672 1699.82 611.75 1697.5 611.75C1695.18 611.75 1692.95 612.672 1691.31 614.313C1689.67 615.954 1688.75 618.179 1688.75 620.5ZM1583.75 550.5C1583.75 552.821 1584.67 555.046 1586.31 556.687C1587.95 558.328 1590.18 559.25 1592.5 559.25C1594.82 559.25 1597.05 558.328 1598.69 556.687C1600.33 555.046 1601.25 552.821 1601.25 550.5C1601.25 548.179 1600.33 545.954 1598.69 544.313C1597.05 542.672 1594.82 541.75 1592.5 541.75C1590.18 541.75 1587.95 542.672 1586.31 544.313C1584.67 545.954 1583.75 548.179 1583.75 550.5Z" fill="#4A5CFF"/>
<path d="M144.2 199L176.4 164H208.6L240.8 129H273M144.2 199H112H79.8H47.6L15.4 164H-16.8H-49M144.2 199H176.4" stroke="#4A5CFF" stroke-width="5.83"/>
<path d="M184.143 199.2C184.143 201.534 183.292 203.772 181.779 205.423C180.265 207.073 178.212 208 176.071 208C173.931 208 171.878 207.073 170.364 205.423C168.85 203.772 168 201.534 168 199.2C168 196.866 168.85 194.628 170.364 192.977C171.878 191.327 173.931 190.4 176.071 190.4C178.212 190.4 180.265 191.327 181.779 192.977C183.292 194.628 184.143 196.866 184.143 199.2ZM281 128.8C281 131.134 280.15 133.372 278.636 135.023C277.122 136.673 275.069 137.6 272.929 137.6C270.788 137.6 268.735 136.673 267.221 135.023C265.708 133.372 264.857 131.134 264.857 128.8C264.857 126.466 265.708 124.228 267.221 122.577C268.735 120.927 270.788 120 272.929 120C275.069 120 277.122 120.927 278.636 122.577C280.15 124.228 281 126.466 281 128.8Z" fill="#4A5CFF"/>
<path d="M1907.5 235.5H1872.5M1907.5 235.5L1942.5 270.5M1907.5 235.5L1872.5 200.5H1837.5H1802.5M1802.5 200.5L1767.5 165.5H1732.5M1802.5 200.5H1767.5H1732.5" stroke="#4A5CFF" stroke-width="5.83"/>
<path d="M1723.75 200.5C1723.75 202.821 1724.67 205.046 1726.31 206.687C1727.95 208.328 1730.18 209.25 1732.5 209.25C1734.82 209.25 1737.05 208.328 1738.69 206.687C1740.33 205.046 1741.25 202.821 1741.25 200.5C1741.25 198.179 1740.33 195.954 1738.69 194.313C1737.05 192.672 1734.82 191.75 1732.5 191.75C1730.18 191.75 1727.95 192.672 1726.31 194.313C1724.67 195.954 1723.75 198.179 1723.75 200.5ZM1863.75 235.5C1863.75 237.821 1864.67 240.046 1866.31 241.687C1867.95 243.328 1870.18 244.25 1872.5 244.25C1874.82 244.25 1877.05 243.328 1878.69 241.687C1880.33 240.046 1881.25 237.821 1881.25 235.5C1881.25 233.179 1880.33 230.954 1878.69 229.313C1877.05 227.672 1874.82 226.75 1872.5 226.75C1870.18 226.75 1867.95 227.672 1866.31 229.313C1864.67 230.954 1863.75 233.179 1863.75 235.5ZM1723.75 165.5C1723.75 167.821 1724.67 170.046 1726.31 171.687C1727.95 173.328 1730.18 174.25 1732.5 174.25C1734.82 174.25 1737.05 173.328 1738.69 171.687C1740.33 170.046 1741.25 167.821 1741.25 165.5C1741.25 163.179 1740.33 160.954 1738.69 159.313C1737.05 157.672 1734.82 156.75 1732.5 156.75C1730.18 156.75 1727.95 157.672 1726.31 159.313C1724.67 160.954 1723.75 163.179 1723.75 165.5Z" fill="#4A5CFF"/>
<path d="M42.3333 275H84.6667M42.3333 275L2.6226e-06 310M42.3333 275L84.6667 240H127H169.333M169.333 240L211.667 205H254M169.333 240H211.667H254" stroke="#4A5CFF" stroke-width="5.83"/>
<path d="M265 240C265 242.334 263.882 244.572 261.892 246.223C259.902 247.873 257.203 248.8 254.389 248.8C251.575 248.8 248.876 247.873 246.886 246.223C244.896 244.572 243.778 242.334 243.778 240C243.778 237.666 244.896 235.428 246.886 233.777C248.876 232.127 251.575 231.2 254.389 231.2C257.203 231.2 259.902 232.127 261.892 233.777C263.882 235.428 265 237.666 265 240ZM95.2222 275.2C95.2222 277.534 94.1042 279.772 92.1142 281.423C90.1243 283.073 87.4253 284 84.6111 284C81.7969 284 79.0979 283.073 77.108 281.423C75.118 279.772 74 277.534 74 275.2C74 272.866 75.118 270.628 77.108 268.977C79.0979 267.327 81.7969 266.4 84.6111 266.4C87.4253 266.4 90.1243 267.327 92.1142 268.977C94.1042 270.628 95.2222 272.866 95.2222 275.2ZM265 204.8C265 207.134 263.882 209.372 261.892 211.023C259.902 212.673 257.203 213.6 254.389 213.6C251.575 213.6 248.876 212.673 246.886 211.023C244.896 209.372 243.778 207.134 243.778 204.8C243.778 202.466 244.896 200.228 246.886 198.577C248.876 196.927 251.575 196 254.389 196C257.203 196 259.902 196.927 261.892 198.577C263.882 200.228 265 202.466 265 204.8Z" fill="#4A5CFF"/>
<path d="M1942.5 620.5H1907.5" stroke="#8EB7F3" stroke-width="5.83"/>
<path d="M1898.75 620.5C1898.75 622.821 1899.67 625.046 1901.31 626.687C1902.95 628.328 1905.18 629.25 1907.5 629.25C1909.82 629.25 1912.05 628.328 1913.69 626.687C1915.33 625.046 1916.25 622.821 1916.25 620.5C1916.25 618.179 1915.33 615.954 1913.69 614.313C1912.05 612.672 1909.82 611.75 1907.5 611.75C1905.18 611.75 1902.95 612.672 1901.31 614.313C1899.67 615.954 1898.75 618.179 1898.75 620.5Z" fill="#8EB7F3"/>
<path d="M1592.5 620.5L1557.5 655.5H1522.5M1592.5 620.5H1627.5H1662.5M1592.5 620.5H1557.5M1662.5 620.5L1627.5 655.5M1662.5 620.5L1697.5 655.5H1732.5H1767.5H1802.5H1837.5M1837.5 655.5L1802.5 690.5L1767.5 725.5H1732.5M1837.5 655.5H1872.5H1907.5H1942.5" stroke="#8EB7F3" stroke-width="5.83"/>
<path d="M1548.75 620.5C1548.75 622.821 1549.67 625.046 1551.31 626.687C1552.95 628.328 1555.18 629.25 1557.5 629.25C1559.82 629.25 1562.05 628.328 1563.69 626.687C1565.33 625.046 1566.25 622.821 1566.25 620.5C1566.25 618.179 1565.33 615.954 1563.69 614.313C1562.05 612.672 1559.82 611.75 1557.5 611.75C1555.18 611.75 1552.95 612.672 1551.31 614.313C1549.67 615.954 1548.75 618.179 1548.75 620.5ZM1513.75 655.5C1513.75 657.821 1514.67 660.046 1516.31 661.687C1517.95 663.328 1520.18 664.25 1522.5 664.25C1524.82 664.25 1527.05 663.328 1528.69 661.687C1530.33 660.046 1531.25 657.821 1531.25 655.5C1531.25 653.179 1530.33 650.954 1528.69 649.313C1527.05 647.672 1524.82 646.75 1522.5 646.75C1520.18 646.75 1517.95 647.672 1516.31 649.313C1514.67 650.954 1513.75 653.179 1513.75 655.5ZM1618.75 655.5C1618.75 657.821 1619.67 660.046 1621.31 661.687C1622.95 663.328 1625.18 664.25 1627.5 664.25C1629.82 664.25 1632.05 663.328 1633.69 661.687C1635.33 660.046 1636.25 657.821 1636.25 655.5C1636.25 653.179 1635.33 650.954 1633.69 649.313C1632.05 647.672 1629.82 646.75 1627.5 646.75C1625.18 646.75 1622.95 647.672 1621.31 649.313C1619.67 650.954 1618.75 653.179 1618.75 655.5ZM1723.75 725.5C1723.75 727.821 1724.67 730.046 1726.31 731.687C1727.95 733.328 1730.18 734.25 1732.5 734.25C1734.82 734.25 1737.05 733.328 1738.69 731.687C1740.33 730.046 1741.25 727.821 1741.25 725.5C1741.25 723.179 1740.33 720.954 1738.69 719.313C1737.05 717.672 1734.82 716.75 1732.5 716.75C1730.18 716.75 1727.95 717.672 1726.31 719.313C1724.67 720.954 1723.75 723.179 1723.75 725.5Z" fill="#8EB7F3"/>
<path d="M305.833 767L336.417 802H367M305.833 767H275.25H244.667M305.833 767H336.417M244.667 767L275.25 802M244.667 767L214.083 802H183.5H152.917H122.333H91.75M91.75 802L122.333 837L152.917 872H183.5M91.75 802H61.1667H30.5833H3.09944e-06" stroke="#8EB7F3" stroke-width="5.83"/>
<path d="M344.385 766.714C344.385 769.025 343.578 771.242 342.143 772.876C340.707 774.51 338.761 775.429 336.731 775.429C334.701 775.429 332.754 774.51 331.319 772.876C329.883 771.242 329.077 769.025 329.077 766.714C329.077 764.403 329.883 762.187 331.319 760.552C332.754 758.918 334.701 758 336.731 758C338.761 758 340.707 758.918 342.143 760.552C343.578 762.187 344.385 764.403 344.385 766.714ZM375 801.571C375 803.883 374.194 806.099 372.758 807.733C371.323 809.368 369.376 810.286 367.346 810.286C365.316 810.286 363.369 809.368 361.934 807.733C360.499 806.099 359.692 803.883 359.692 801.571C359.692 799.26 360.499 797.044 361.934 795.409C363.369 793.775 365.316 792.857 367.346 792.857C369.376 792.857 371.323 793.775 372.758 795.409C374.194 797.044 375 799.26 375 801.571ZM283.154 801.571C283.154 803.883 282.347 806.099 280.912 807.733C279.477 809.368 277.53 810.286 275.5 810.286C273.47 810.286 271.523 809.368 270.088 807.733C268.653 806.099 267.846 803.883 267.846 801.571C267.846 799.26 268.653 797.044 270.088 795.409C271.523 793.775 273.47 792.857 275.5 792.857C277.53 792.857 279.477 793.775 280.912 795.409C282.347 797.044 283.154 799.26 283.154 801.571ZM191.308 871.286C191.308 873.597 190.501 875.813 189.066 877.448C187.631 879.082 185.684 880 183.654 880C181.624 880 179.677 879.082 178.242 877.448C176.806 875.813 176 873.597 176 871.286C176 868.975 176.806 866.758 178.242 865.124C179.677 863.49 181.624 862.571 183.654 862.571C185.684 862.571 187.631 863.49 189.066 865.124C190.501 866.758 191.308 868.975 191.308 871.286Z" fill="#8EB7F3"/>



<path d="M1872.5 165.5L1837.5 130.5H1802.5M1872.5 165.5L1907.5 200.5H1942.5M1872.5 165.5H1837.5" stroke="#4A5CFF" stroke-width="5.83"/>
<path d="M1828.75 165.5C1828.75 167.821 1829.67 170.046 1831.31 171.687C1832.95 173.328 1835.18 174.25 1837.5 174.25C1839.82 174.25 1842.05 173.328 1843.69 171.687C1845.33 170.046 1846.25 167.821 1846.25 165.5C1846.25 163.179 1845.33 160.954 1843.69 159.313C1842.05 157.672 1839.82 156.75 1837.5 156.75C1835.18 156.75 1832.95 157.672 1831.31 159.313C1829.67 160.954 1828.75 163.179 1828.75 165.5ZM1793.75 130.5C1793.75 132.821 1794.67 135.046 1796.31 136.687C1797.95 138.328 1800.18 139.25 1802.5 139.25C1804.82 139.25 1807.05 138.328 1808.69 136.687C1810.33 135.046 1811.25 132.821 1811.25 130.5C1811.25 128.179 1810.33 125.954 1808.69 124.313C1807.05 122.672 1804.82 121.75 1802.5 121.75C1800.18 121.75 1797.95 122.672 1796.31 124.313C1794.67 125.954 1793.75 128.179 1793.75 130.5Z" fill="#4A5CFF"/>
</g>
<defs>

<feFlood flood-opacity="0" result="BackgroundImageFix"/>
<feBlend mode="normal" in="SourceGraphic" in2="BackgroundImageFix" result="shape"/>
<feGaussianBlur stdDeviation="2.5" result="effect1_foregroundBlur_1_118"/>
</filter>
</defs>
</svg>
