<svg width="1920" height="1080" viewBox="0 0 1920 1080" fill="none" xmlns="http://www.w3.org/2000/svg">
<mask id="mask0_260_170" style="mask-type:luminance" maskUnits="userSpaceOnUse" x="0" y="-1" width="1920" height="1081">
<path d="M0 1080L1920 1080V-0.000244141L0 -0.000244141V1080Z" fill="white"/>
</mask>
<g mask="url(#mask0_260_170)">
<path d="M0 1080L1920 1080V-0.000244141L0 -0.000244141V1080Z" fill="url(#paint0_linear_260_170)"/>
</g>
<path d="M1920 1080H0V980.988L1920 523V1080Z" fill="url(#paint1_linear_260_170)"/>
<path d="M1920 1080H0V980.988L1920 523V1080Z" fill="url(#paint2_linear_260_170)"/>
<path d="M1920 1080H0V980.988L1920 523V1080Z" fill="url(#paint3_linear_260_170)"/>
<path d="M0 0L1920 0V99.0118L0 557L0 0Z" fill="url(#paint4_linear_260_170)"/>
<path d="M0 0L1920 0V99.0118L0 557L0 0Z" fill="url(#paint5_linear_260_170)"/>
<path d="M0 0L1920 0V99.0118L0 557L0 0Z" fill="url(#paint6_linear_260_170)"/>
<defs>
<linearGradient id="paint0_linear_260_170" x1="960" y1="1080" x2="960" y2="-0.000244141" gradientUnits="userSpaceOnUse">
<stop stop-color="#060004"/>
<stop offset="0.572917" stop-color="#0E162A"/>
<stop offset="1" stop-color="#212E46"/>
</linearGradient>
<linearGradient id="paint1_linear_260_170" x1="960" y1="1080" x2="960" y2="523" gradientUnits="userSpaceOnUse">
<stop stop-color="#000610"/>
<stop offset="1" stop-color="#506391"/>
</linearGradient>
<linearGradient id="paint2_linear_260_170" x1="960" y1="1080" x2="960" y2="523" gradientUnits="userSpaceOnUse">
<stop stop-color="#000610"/>
<stop offset="1" stop-color="#506391"/>
</linearGradient>
<linearGradient id="paint3_linear_260_170" x1="960" y1="1080" x2="960" y2="523" gradientUnits="userSpaceOnUse">
<stop stop-color="#000610"/>
<stop offset="1" stop-color="#506391"/>
</linearGradient>
<linearGradient id="paint4_linear_260_170" x1="960" y1="0" x2="960" y2="557" gradientUnits="userSpaceOnUse">
<stop stop-color="#000610"/>
<stop offset="1" stop-color="#506391"/>
</linearGradient>
<linearGradient id="paint5_linear_260_170" x1="960" y1="0" x2="960" y2="557" gradientUnits="userSpaceOnUse">
<stop stop-color="#000610"/>
<stop offset="1" stop-color="#506391"/>
</linearGradient>
<linearGradient id="paint6_linear_260_170" x1="960" y1="0" x2="960" y2="557" gradientUnits="userSpaceOnUse">
<stop stop-color="#000610"/>
<stop offset="1" stop-color="#506391"/>
</linearGradient>
</defs>
</svg>
